<svg xmlns="http://www.w3.org/2000/svg" xmlns:xlink="http://www.w3.org/1999/xlink" version="1.1" x="0px" y="0px" viewBox="0 0 100 125" enable-background="new 0 0 100 100" xml:space="preserve"><g><path fill="#000000" d="M75.863,42.436c-0.233,0.148-0.303,0.457-0.153,0.69c0.633,0.994,0.774,2.038,0.425,3.104   c-0.605,1.843-2.535,3.307-4.186,3.943c-0.774,0.313-1.579,0.61-2.405,0.888c-10.944-8.744-28.936-8.817-39.56-0.193   c-0.781-0.273-1.543-0.562-2.276-0.87c0,0-0.001,0-0.002-0.001c-0.001,0-0.002-0.001-0.004-0.002   c-1.751-0.708-3.236-2.116-3.784-3.587c-0.368-0.986-0.313-1.957,0.162-2.885c0.126-0.245,0.029-0.547-0.217-0.673   c-0.246-0.124-0.547-0.027-0.673,0.218c-0.6,1.171-0.672,2.446-0.209,3.688c0.642,1.723,2.348,3.357,4.347,4.166   c0.001,0,0.002,0,0.004,0.002C33.608,53.551,41.67,55,50.036,55c8.165,0,16.081-1.385,22.28-3.896   c2.272-0.875,4.146-2.667,4.769-4.561c0.442-1.345,0.259-2.712-0.53-3.953C76.405,42.357,76.098,42.289,75.863,42.436z    M31.151,51.242c10.16-7.789,26.736-7.715,37.201,0.184C62.924,53.088,56.574,54,50.036,54C43.254,54,36.699,53.023,31.151,51.242z   "/><path fill="#000000" d="M49.998,22.5C24.91,22.5,4.5,34.835,4.5,49.999C4.5,65.164,24.91,77.5,49.998,77.5   c25.09,0,45.502-12.336,45.502-27.501C95.5,34.835,75.088,22.5,49.998,22.5z M49.998,76.5C25.462,76.5,5.5,64.611,5.5,49.999   S25.462,23.5,49.998,23.5C74.536,23.5,94.5,35.387,94.5,49.999S74.536,76.5,49.998,76.5z"/></g><text x="0" y="115" fill="#000000" font-size="5px" font-weight="bold" font-family="'Helvetica Neue', Helvetica, Arial-Unicode, Arial, Sans-serif">Created by Ates Evren Aydinel</text><text x="0" y="120" fill="#000000" font-size="5px" font-weight="bold" font-family="'Helvetica Neue', Helvetica, Arial-Unicode, Arial, Sans-serif">from the Noun Project</text></svg>