<svg xmlns="http://www.w3.org/2000/svg" enable-background="new 0 0 100 100" viewBox="0 0 100 125" x="0px" y="0px"><path d="m77.5 31-24.5-14.2c-.9-.5-2-.8-3-.8s-2.1.3-3 .8l-24.5 14.2c-1.9 1.1-3 3.1-3 5.2v28.3c0 2.1 1.1 4.1 3 5.2l24.5 14.2c.9.5 2 .8 3 .8s2.1-.3 3-.8l24.5-14.2c1.9-1.1 3-3.1 3-5.2v-28.3c0-2.2-1.1-4.2-3-5.2zm-27.5-9 21.6 12.4-21.6 12.5-21.5-12.5zm-24.5 17.6 21.5 12.5v24.9l-21.5-12.5zm27.5 37.4v-24.9l21.5-12.4v24.9z"/><text x="0" y="115" fill="#000000" font-size="5px" font-weight="bold" font-family="'Helvetica Neue', Helvetica, Arial-Unicode, Arial, Sans-serif">Created by Thomas Le Bas</text><text x="0" y="120" fill="#000000" font-size="5px" font-weight="bold" font-family="'Helvetica Neue', Helvetica, Arial-Unicode, Arial, Sans-serif">from the Noun Project</text></svg>