solid craftml
facet normal 0.891701230225933 -0.07801374889688936 -0.4458506151129665
outer loop
vertex 1.5 -1.5000000000000018 0
vertex 6.5 -1.5000000000000018 10
vertex 6.42403876506104 -2.368240888334653 10
endloop
endfacet
facet normal 0.8646073395681128 -0.23167083840729705 -0.44585061511296636
outer loop
vertex 1.5 -1.5000000000000018 0
vertex 6.42403876506104 -2.368240888334653 10
vertex 6.198463103929543 -3.210100716628344 10
endloop
endfacet
facet normal 0.811242792409939 -0.37828872672380004 -0.4458506151129667
outer loop
vertex 1.5 -1.5000000000000018 0
vertex 6.198463103929543 -3.210100716628344 10
vertex 5.8301270189221945 -3.999999999999999 10
endloop
endfacet
facet normal 0.7332290435130491 -0.5134125035021337 -0.44585061511296636
outer loop
vertex 1.5 -1.5000000000000018 0
vertex 5.8301270189221945 -3.999999999999999 10
vertex 5.330222215594889 -4.7139380484326985 10
endloop
endfacet
facet normal 0.6329365011608161 -0.6329365011608147 -0.4458506151129664
outer loop
vertex 1.5 -1.5000000000000018 0
vertex 5.330222215594889 -4.7139380484326985 10
vertex 4.713938048432697 -5.330222215594891 10
endloop
endfacet
facet normal 0.5134125035021324 -0.73322904351305 -0.44585061511296664
outer loop
vertex 1.5 -1.5000000000000018 0
vertex 4.713938048432697 -5.330222215594891 10
vertex 3.9999999999999964 -5.830127018922196 10
endloop
endfacet
facet normal 0.3782887267238001 -0.811242792409939 -0.44585061511296653
outer loop
vertex 1.5 -1.5000000000000018 0
vertex 3.9999999999999964 -5.830127018922196 10
vertex 3.210100716628345 -6.198463103929543 10
endloop
endfacet
facet normal 0.23167083840729727 -0.8646073395681125 -0.44585061511296653
outer loop
vertex 1.5 -1.5000000000000018 0
vertex 3.210100716628345 -6.198463103929543 10
vertex 2.3682408883346495 -6.4240387650610415 10
endloop
endfacet
facet normal 0.07801374889688874 -0.8917012302259332 -0.44585061511296653
outer loop
vertex 1.5 -1.5000000000000018 0
vertex 2.3682408883346495 -6.4240387650610415 10
vertex 1.4999999999999991 -6.500000000000001 10
endloop
endfacet
facet normal -0.07801374889689018 -0.8917012302259331 -0.4458506151129664
outer loop
vertex 1.5 -1.5000000000000018 0
vertex 1.4999999999999991 -6.500000000000001 10
vertex 0.6317591116653487 -6.424038765061041 10
endloop
endfacet
facet normal -0.23167083840729621 -0.8646073395681128 -0.4458506151129665
outer loop
vertex 1.5 -1.5000000000000018 0
vertex 0.6317591116653487 -6.424038765061041 10
vertex -0.21010071662834262 -6.1984631039295435 10
endloop
endfacet
facet normal -0.37828872672380004 -0.811242792409939 -0.44585061511296653
outer loop
vertex 1.5 -1.5000000000000018 0
vertex -0.21010071662834262 -6.1984631039295435 10
vertex -1.0000000000000022 -5.830127018922194 10
endloop
endfacet
facet normal -0.5134125035021335 -0.7332290435130493 -0.44585061511296636
outer loop
vertex 1.5 -1.5000000000000018 0
vertex -1.0000000000000022 -5.830127018922194 10
vertex -1.7139380484326976 -5.33022221559489 10
endloop
endfacet
facet normal -0.6329365011608156 -0.6329365011608149 -0.4458506151129667
outer loop
vertex 1.5 -1.5000000000000018 0
vertex -1.7139380484326976 -5.33022221559489 10
vertex -2.3302222155948917 -4.713938048432695 10
endloop
endfacet
facet normal -0.73322904351305 -0.5134125035021326 -0.4458506151129664
outer loop
vertex 1.5 -1.5000000000000018 0
vertex -2.3302222155948917 -4.713938048432695 10
vertex -2.8301270189221928 -4.000000000000002 10
endloop
endfacet
facet normal -0.8112427924099387 -0.3782887267238007 -0.44585061511296653
outer loop
vertex 1.5 -1.5000000000000018 0
vertex -2.8301270189221928 -4.000000000000002 10
vertex -3.1984631039295426 -3.210100716628344 10
endloop
endfacet
facet normal -0.8646073395681125 -0.2316708384072972 -0.44585061511296636
outer loop
vertex 1.5 -1.5000000000000018 0
vertex -3.1984631039295426 -3.210100716628344 10
vertex -3.4240387650610407 -2.3682408883346513 10
endloop
endfacet
facet normal -0.8917012302259332 -0.07801374889688865 -0.4458506151129666
outer loop
vertex 1.5 -1.5000000000000018 0
vertex -3.4240387650610407 -2.3682408883346513 10
vertex -3.5 -1.5 10
endloop
endfacet
facet normal -0.8917012302259331 0.07801374889688945 -0.44585061511296653
outer loop
vertex 1.5 -1.5000000000000018 0
vertex -3.5 -1.5 10
vertex -3.4240387650610398 -0.6317591116653496 10
endloop
endfacet
facet normal -0.8646073395681126 0.231670838407297 -0.4458506151129664
outer loop
vertex 1.5 -1.5000000000000018 0
vertex -3.4240387650610398 -0.6317591116653496 10
vertex -3.1984631039295417 0.21010071662834395 10
endloop
endfacet
facet normal -0.8112427924099392 0.3782887267237997 -0.4458506151129665
outer loop
vertex 1.5 -1.5000000000000018 0
vertex -3.1984631039295417 0.21010071662834395 10
vertex -2.8301270189221928 1.0000000000000009 9.999999999999998
endloop
endfacet
facet normal -0.7332290435130498 0.5134125035021326 -0.4458506151129669
outer loop
vertex 1.5 -1.5000000000000018 0
vertex -2.8301270189221928 1.0000000000000009 9.999999999999998
vertex -2.3302222155948895 1.7139380484326976 9.999999999999998
endloop
endfacet
facet normal -0.6329365011608148 0.6329365011608155 -0.4458506151129667
outer loop
vertex 1.5 -1.5000000000000018 0
vertex -2.3302222155948895 1.7139380484326976 9.999999999999998
vertex -1.7139380484326967 2.3302222155948895 9.999999999999998
endloop
endfacet
facet normal -0.513412503502133 0.7332290435130496 -0.4458506151129667
outer loop
vertex 1.5 -1.5000000000000018 0
vertex -1.7139380484326967 2.3302222155948895 9.999999999999998
vertex -0.9999999999999991 2.8301270189221936 9.999999999999998
endloop
endfacet
facet normal -0.37828872672379993 0.8112427924099391 -0.4458506151129666
outer loop
vertex 1.5 -1.5000000000000018 0
vertex -0.9999999999999991 2.8301270189221936 9.999999999999998
vertex -0.21010071662834218 3.1984631039295417 9.999999999999998
endloop
endfacet
facet normal -0.23167083840729635 0.8646073395681128 -0.4458506151129666
outer loop
vertex 1.5 -1.5000000000000018 0
vertex -0.21010071662834218 3.1984631039295417 9.999999999999998
vertex 0.6317591116653487 3.424038765061039 9.999999999999998
endloop
endfacet
facet normal -0.07801374889688938 0.891701230225933 -0.44585061511296664
outer loop
vertex 1.5 -1.5000000000000018 0
vertex 0.6317591116653487 3.424038765061039 9.999999999999998
vertex 1.5 3.499999999999999 9.999999999999998
endloop
endfacet
facet normal 0.07801374889688929 0.8917012302259328 -0.44585061511296664
outer loop
vertex 1.5 -1.5000000000000018 0
vertex 1.5 3.499999999999999 9.999999999999998
vertex 2.368240888334652 3.424038765061039 9.999999999999998
endloop
endfacet
facet normal 0.23167083840729816 0.8646073395681122 -0.44585061511296653
outer loop
vertex 1.5 -1.5000000000000018 0
vertex 2.368240888334652 3.424038765061039 9.999999999999998
vertex 3.210100716628344 3.19846310392954 9.999999999999998
endloop
endfacet
facet normal 0.37828872672379965 0.8112427924099392 -0.44585061511296664
outer loop
vertex 1.5 -1.5000000000000018 0
vertex 3.210100716628344 3.19846310392954 9.999999999999998
vertex 4 2.830127018922192 9.999999999999998
endloop
endfacet
facet normal 0.5134125035021325 0.7332290435130501 -0.4458506151129665
outer loop
vertex 1.5 -1.5000000000000018 0
vertex 4 2.830127018922192 9.999999999999998
vertex 4.713938048432697 2.3302222155948895 9.999999999999998
endloop
endfacet
facet normal 0.6329365011608152 0.6329365011608152 -0.44585061511296686
outer loop
vertex 1.5 -1.5000000000000018 0
vertex 4.713938048432697 2.3302222155948895 9.999999999999998
vertex 5.33022221559489 1.7139380484326958 9.999999999999998
endloop
endfacet
facet normal 0.7332290435130492 0.5134125035021334 -0.44585061511296653
outer loop
vertex 1.5 -1.5000000000000018 0
vertex 5.33022221559489 1.7139380484326958 9.999999999999998
vertex 5.8301270189221945 0.9999999999999991 9.999999999999998
endloop
endfacet
facet normal 0.8112427924099396 0.37828872672379854 -0.4458506151129668
outer loop
vertex 1.5 -1.5000000000000018 0
vertex 5.8301270189221945 0.9999999999999991 9.999999999999998
vertex 6.198463103929543 0.21010071662834218 10
endloop
endfacet
facet normal 0.8646073395681126 0.23167083840729685 -0.4458506151129666
outer loop
vertex 1.5 -1.5000000000000018 0
vertex 6.198463103929543 0.21010071662834218 10
vertex 6.42403876506104 -0.6317591116653496 10
endloop
endfacet
facet normal 0.891701230225933 0.07801374889688936 -0.4458506151129665
outer loop
vertex 1.5 -1.5000000000000018 0
vertex 6.42403876506104 -0.6317591116653496 10
vertex 6.5 -1.5000000000000009 10
endloop
endfacet
facet normal 0 0 1
outer loop
vertex 6.5 -1.5000000000000009 10
vertex 6.42403876506104 -0.6317591116653496 10
vertex 6.198463103929543 0.21010071662834218 10
endloop
endfacet
facet normal 0 0 1
outer loop
vertex 6.5 -1.5000000000000009 10
vertex 6.198463103929543 0.21010071662834218 10
vertex 5.8301270189221945 0.9999999999999991 9.999999999999998
endloop
endfacet
facet normal 0 0 1
outer loop
vertex 6.5 -1.5000000000000009 10
vertex 5.8301270189221945 0.9999999999999991 9.999999999999998
vertex 5.33022221559489 1.7139380484326958 9.999999999999998
endloop
endfacet
facet normal 0 0 1
outer loop
vertex 6.5 -1.5000000000000009 10
vertex 5.33022221559489 1.7139380484326958 9.999999999999998
vertex 4.713938048432697 2.3302222155948895 9.999999999999998
endloop
endfacet
facet normal 0 0 1
outer loop
vertex 6.5 -1.5000000000000009 10
vertex 4.713938048432697 2.3302222155948895 9.999999999999998
vertex 4 2.830127018922192 9.999999999999998
endloop
endfacet
facet normal 0 0 1
outer loop
vertex 6.5 -1.5000000000000009 10
vertex 4 2.830127018922192 9.999999999999998
vertex 3.210100716628344 3.19846310392954 9.999999999999998
endloop
endfacet
facet normal 0 0 1
outer loop
vertex 6.5 -1.5000000000000009 10
vertex 3.210100716628344 3.19846310392954 9.999999999999998
vertex 2.368240888334652 3.424038765061039 9.999999999999998
endloop
endfacet
facet normal 0 0 1
outer loop
vertex 6.5 -1.5000000000000009 10
vertex 2.368240888334652 3.424038765061039 9.999999999999998
vertex 1.5 3.499999999999999 9.999999999999998
endloop
endfacet
facet normal 0 0 1
outer loop
vertex 6.5 -1.5000000000000009 10
vertex 1.5 3.499999999999999 9.999999999999998
vertex 0.6317591116653487 3.424038765061039 9.999999999999998
endloop
endfacet
facet normal 0 0 1
outer loop
vertex 6.5 -1.5000000000000009 10
vertex 0.6317591116653487 3.424038765061039 9.999999999999998
vertex -0.21010071662834218 3.1984631039295417 9.999999999999998
endloop
endfacet
facet normal 0 0 1
outer loop
vertex 6.5 -1.5000000000000009 10
vertex -0.21010071662834218 3.1984631039295417 9.999999999999998
vertex -0.9999999999999991 2.8301270189221936 9.999999999999998
endloop
endfacet
facet normal 0 0 1
outer loop
vertex 6.5 -1.5000000000000009 10
vertex -0.9999999999999991 2.8301270189221936 9.999999999999998
vertex -1.7139380484326967 2.3302222155948895 9.999999999999998
endloop
endfacet
facet normal 0 0 1
outer loop
vertex 6.5 -1.5000000000000009 10
vertex -1.7139380484326967 2.3302222155948895 9.999999999999998
vertex -2.3302222155948895 1.7139380484326976 9.999999999999998
endloop
endfacet
facet normal 0 0 1
outer loop
vertex 6.5 -1.5000000000000009 10
vertex -2.3302222155948895 1.7139380484326976 9.999999999999998
vertex -2.8301270189221928 1.0000000000000009 9.999999999999998
endloop
endfacet
facet normal 0 0 1
outer loop
vertex 6.5 -1.5000000000000009 10
vertex -2.8301270189221928 1.0000000000000009 9.999999999999998
vertex -3.1984631039295417 0.21010071662834395 10
endloop
endfacet
facet normal 0 0 1
outer loop
vertex 6.5 -1.5000000000000009 10
vertex -3.1984631039295417 0.21010071662834395 10
vertex -3.4240387650610398 -0.6317591116653496 10
endloop
endfacet
facet normal 0 0 1
outer loop
vertex 6.5 -1.5000000000000009 10
vertex -3.4240387650610398 -0.6317591116653496 10
vertex -3.5 -1.5 10
endloop
endfacet
facet normal 0 0 1
outer loop
vertex 6.5 -1.5000000000000009 10
vertex -3.5 -1.5 10
vertex -3.4240387650610407 -2.3682408883346513 10
endloop
endfacet
facet normal 0 0 1
outer loop
vertex 6.5 -1.5000000000000009 10
vertex -3.4240387650610407 -2.3682408883346513 10
vertex -3.1984631039295426 -3.210100716628344 10
endloop
endfacet
facet normal 0 0 1
outer loop
vertex 6.5 -1.5000000000000009 10
vertex -3.1984631039295426 -3.210100716628344 10
vertex -2.8301270189221928 -4.000000000000002 10
endloop
endfacet
facet normal 0 0 1
outer loop
vertex 6.5 -1.5000000000000009 10
vertex -2.8301270189221928 -4.000000000000002 10
vertex -2.3302222155948917 -4.713938048432695 10
endloop
endfacet
facet normal 0 0 1
outer loop
vertex 6.5 -1.5000000000000009 10
vertex -2.3302222155948917 -4.713938048432695 10
vertex -1.7139380484326976 -5.33022221559489 10
endloop
endfacet
facet normal 0 0 1
outer loop
vertex 6.5 -1.5000000000000009 10
vertex -1.7139380484326976 -5.33022221559489 10
vertex -1.0000000000000022 -5.830127018922194 10
endloop
endfacet
facet normal 0 0 1
outer loop
vertex 6.5 -1.5000000000000009 10
vertex -1.0000000000000022 -5.830127018922194 10
vertex -0.21010071662834262 -6.1984631039295435 10
endloop
endfacet
facet normal 0 0 1
outer loop
vertex 6.5 -1.5000000000000009 10
vertex -0.21010071662834262 -6.1984631039295435 10
vertex 0.6317591116653487 -6.424038765061041 10
endloop
endfacet
facet normal 0 0 1
outer loop
vertex 6.5 -1.5000000000000009 10
vertex 0.6317591116653487 -6.424038765061041 10
vertex 1.4999999999999991 -6.500000000000001 10
endloop
endfacet
facet normal 0 0 1
outer loop
vertex 6.5 -1.5000000000000009 10
vertex 1.4999999999999991 -6.500000000000001 10
vertex 2.3682408883346495 -6.4240387650610415 10
endloop
endfacet
facet normal 0 0 1
outer loop
vertex 6.5 -1.5000000000000009 10
vertex 2.3682408883346495 -6.4240387650610415 10
vertex 3.210100716628345 -6.198463103929543 10
endloop
endfacet
facet normal 0 0 1
outer loop
vertex 6.5 -1.5000000000000009 10
vertex 3.210100716628345 -6.198463103929543 10
vertex 3.9999999999999964 -5.830127018922196 10
endloop
endfacet
facet normal 0 0 1
outer loop
vertex 6.5 -1.5000000000000009 10
vertex 3.9999999999999964 -5.830127018922196 10
vertex 4.713938048432697 -5.330222215594891 10
endloop
endfacet
facet normal 0 0 1
outer loop
vertex 6.5 -1.5000000000000009 10
vertex 4.713938048432697 -5.330222215594891 10
vertex 5.330222215594889 -4.7139380484326985 10
endloop
endfacet
facet normal 0 0 1
outer loop
vertex 6.5 -1.5000000000000009 10
vertex 5.330222215594889 -4.7139380484326985 10
vertex 5.8301270189221945 -3.999999999999999 10
endloop
endfacet
facet normal 0 0 1
outer loop
vertex 6.5 -1.5000000000000009 10
vertex 5.8301270189221945 -3.999999999999999 10
vertex 6.198463103929543 -3.210100716628344 10
endloop
endfacet
facet normal 0 0 1
outer loop
vertex 6.5 -1.5000000000000009 10
vertex 6.198463103929543 -3.210100716628344 10
vertex 6.42403876506104 -2.368240888334653 10
endloop
endfacet
facet normal 0 0 1
outer loop
vertex 6.5 -1.5000000000000009 10
vertex 6.42403876506104 -2.368240888334653 10
vertex 6.5 -1.5000000000000018 10
endloop
endfacet
facet normal 0 0 1
outer loop
vertex 2.9488887394336025 -1.8882285676537793 30
vertex 3 -1.4999999999999982 30
vertex 1.5 -1.4999999999999982 30
endloop
endfacet
facet normal 0.9914448613738105 -0.13052619222005138 1.5948279312880933e-17
outer loop
vertex 2.9488887394336025 -1.8882285676537818 10
vertex 3 -1.5000000000000007 10
vertex 3 -1.4999999999999982 30
endloop
endfacet
facet normal 0.9914448613738105 -0.13052619222005138 1.5948279312880933e-17
outer loop
vertex 2.9488887394336025 -1.8882285676537818 10
vertex 3 -1.4999999999999982 30
vertex 2.9488887394336025 -1.8882285676537793 30
endloop
endfacet
facet normal 0 0 -1
outer loop
vertex 3 -1.5000000000000007 10
vertex 2.9488887394336025 -1.8882285676537818 10
vertex 1.5 -1.5000000000000007 10
endloop
endfacet
facet normal 0 0 1
outer loop
vertex 2.799038105676658 -2.2499999999999982 30
vertex 2.9488887394336025 -1.8882285676537793 30
vertex 1.5 -1.4999999999999982 30
endloop
endfacet
facet normal 0.9238795325112866 -0.38268343236509006 4.695882242126053e-17
outer loop
vertex 2.799038105676658 -2.2500000000000004 10
vertex 2.9488887394336025 -1.8882285676537818 10
vertex 2.9488887394336025 -1.8882285676537793 30
endloop
endfacet
facet normal 0.9238795325112866 -0.38268343236509006 4.695882242126053e-17
outer loop
vertex 2.799038105676658 -2.2500000000000004 10
vertex 2.9488887394336025 -1.8882285676537793 30
vertex 2.799038105676658 -2.2499999999999982 30
endloop
endfacet
facet normal 0 0 -1
outer loop
vertex 2.9488887394336025 -1.8882285676537818 10
vertex 2.799038105676658 -2.2500000000000004 10
vertex 1.5 -1.5000000000000007 10
endloop
endfacet
facet normal 0 0 1
outer loop
vertex 2.5606601717798214 -2.560660171779819 30
vertex 2.799038105676658 -2.2499999999999982 30
vertex 1.5 -1.4999999999999982 30
endloop
endfacet
facet normal 0.7933533402912354 -0.6087614290087203 6.733717932105281e-17
outer loop
vertex 2.5606601717798214 -2.560660171779822 10
vertex 2.799038105676658 -2.2500000000000004 10
vertex 2.799038105676658 -2.2499999999999982 30
endloop
endfacet
facet normal 0.7933533402912354 -0.6087614290087203 6.733717932105281e-17
outer loop
vertex 2.5606601717798214 -2.560660171779822 10
vertex 2.799038105676658 -2.2499999999999982 30
vertex 2.5606601717798214 -2.560660171779819 30
endloop
endfacet
facet normal 0 0 -1
outer loop
vertex 2.799038105676658 -2.2500000000000004 10
vertex 2.5606601717798214 -2.560660171779822 10
vertex 1.5 -1.5000000000000007 10
endloop
endfacet
facet normal 0 0 1
outer loop
vertex 2.25 -2.7990381056766562 30
vertex 2.5606601717798214 -2.560660171779819 30
vertex 1.5 -1.4999999999999982 30
endloop
endfacet
facet normal 0.6087614290087211 -0.7933533402912348 1.0632186208587278e-16
outer loop
vertex 2.25 -2.799038105676659 10
vertex 2.5606601717798214 -2.560660171779822 10
vertex 2.5606601717798214 -2.560660171779819 30
endloop
endfacet
facet normal 0.6087614290087211 -0.7933533402912348 1.0632186208587278e-16
outer loop
vertex 2.25 -2.799038105676659 10
vertex 2.5606601717798214 -2.560660171779819 30
vertex 2.25 -2.7990381056766562 30
endloop
endfacet
facet normal 0 0 -1
outer loop
vertex 2.5606601717798214 -2.560660171779822 10
vertex 2.25 -2.799038105676659 10
vertex 1.5 -1.5000000000000007 10
endloop
endfacet
facet normal 0 0 1
outer loop
vertex 1.888228567653781 -2.9488887394336007 30
vertex 2.25 -2.7990381056766562 30
vertex 1.5 -1.4999999999999982 30
endloop
endfacet
facet normal 0.38268343236508984 -0.9238795325112866 1.2315615691613603e-16
outer loop
vertex 1.888228567653781 -2.9488887394336034 10
vertex 2.25 -2.799038105676659 10
vertex 2.25 -2.7990381056766562 30
endloop
endfacet
facet normal 0.38268343236508984 -0.9238795325112866 1.2315615691613603e-16
outer loop
vertex 1.888228567653781 -2.9488887394336034 10
vertex 2.25 -2.7990381056766562 30
vertex 1.888228567653781 -2.9488887394336007 30
endloop
endfacet
facet normal 0 0 -1
outer loop
vertex 2.25 -2.799038105676659 10
vertex 1.888228567653781 -2.9488887394336034 10
vertex 1.5 -1.5000000000000007 10
endloop
endfacet
facet normal 0 0 1
outer loop
vertex 1.5 -2.9999999999999982 30
vertex 1.888228567653781 -2.9488887394336007 30
vertex 1.5 -1.4999999999999982 30
endloop
endfacet
facet normal 0.13052619222005138 -0.9914448613738105 1.3201631208995883e-16
outer loop
vertex 1.5 -3.000000000000001 10
vertex 1.888228567653781 -2.9488887394336034 10
vertex 1.888228567653781 -2.9488887394336007 30
endloop
endfacet
facet normal 0.13052619222005138 -0.9914448613738105 1.3201631208995883e-16
outer loop
vertex 1.5 -3.000000000000001 10
vertex 1.888228567653781 -2.9488887394336007 30
vertex 1.5 -2.9999999999999982 30
endloop
endfacet
facet normal 0 0 -1
outer loop
vertex 1.888228567653781 -2.9488887394336034 10
vertex 1.5 -3.000000000000001 10
vertex 1.5 -1.5000000000000007 10
endloop
endfacet
facet normal 0 0 1
outer loop
vertex 1.1117714323462187 -2.9488887394336007 30
vertex 1.5 -2.9999999999999982 30
vertex 1.5 -1.4999999999999982 30
endloop
endfacet
facet normal -0.1305261922200513 -0.9914448613738105 1.3201631208995875e-16
outer loop
vertex 1.1117714323462187 -2.9488887394336034 10
vertex 1.5 -3.000000000000001 10
vertex 1.5 -2.9999999999999982 30
endloop
endfacet
facet normal -0.1305261922200513 -0.9914448613738105 1.3201631208995875e-16
outer loop
vertex 1.1117714323462187 -2.9488887394336034 10
vertex 1.5 -2.9999999999999982 30
vertex 1.1117714323462187 -2.9488887394336007 30
endloop
endfacet
facet normal 0 0 -1
outer loop
vertex 1.5 -3.000000000000001 10
vertex 1.1117714323462187 -2.9488887394336034 10
vertex 1.5 -1.5000000000000007 10
endloop
endfacet
facet normal 0 0 1
outer loop
vertex 0.7500000000000003 -2.7990381056766562 30
vertex 1.1117714323462187 -2.9488887394336007 30
vertex 1.5 -1.4999999999999982 30
endloop
endfacet
facet normal -0.38268343236509034 -0.9238795325112864 1.231561569161362e-16
outer loop
vertex 0.7500000000000003 -2.799038105676659 10
vertex 1.1117714323462187 -2.9488887394336034 10
vertex 1.1117714323462187 -2.9488887394336007 30
endloop
endfacet
facet normal -0.38268343236509034 -0.9238795325112864 1.231561569161362e-16
outer loop
vertex 0.7500000000000003 -2.799038105676659 10
vertex 1.1117714323462187 -2.9488887394336007 30
vertex 0.7500000000000003 -2.7990381056766562 30
endloop
endfacet
facet normal 0 0 -1
outer loop
vertex 1.1117714323462187 -2.9488887394336034 10
vertex 0.7500000000000003 -2.799038105676659 10
vertex 1.5 -1.5000000000000007 10
endloop
endfacet
facet normal 0 0 1
outer loop
vertex 0.4393398282201788 -2.5606601717798196 30
vertex 0.7500000000000003 -2.7990381056766562 30
vertex 1.5 -1.4999999999999982 30
endloop
endfacet
facet normal -0.6087614290087209 -0.7933533402912349 1.0632186208587276e-16
outer loop
vertex 0.4393398282201788 -2.560660171779822 10
vertex 0.7500000000000003 -2.799038105676659 10
vertex 0.7500000000000003 -2.7990381056766562 30
endloop
endfacet
facet normal -0.6087614290087209 -0.7933533402912349 1.0632186208587276e-16
outer loop
vertex 0.4393398282201788 -2.560660171779822 10
vertex 0.7500000000000003 -2.7990381056766562 30
vertex 0.4393398282201788 -2.5606601717798196 30
endloop
endfacet
facet normal 0 0 -1
outer loop
vertex 0.7500000000000003 -2.799038105676659 10
vertex 0.4393398282201788 -2.560660171779822 10
vertex 1.5 -1.5000000000000007 10
endloop
endfacet
facet normal 0 0 1
outer loop
vertex 0.200961894323342 -2.2499999999999982 30
vertex 0.4393398282201788 -2.5606601717798196 30
vertex 1.5 -1.4999999999999982 30
endloop
endfacet
facet normal -0.7933533402912352 -0.6087614290087207 6.733717932105279e-17
outer loop
vertex 0.200961894323342 -2.2500000000000004 10
vertex 0.4393398282201788 -2.560660171779822 10
vertex 0.4393398282201788 -2.5606601717798196 30
endloop
endfacet
facet normal -0.7933533402912352 -0.6087614290087207 6.733717932105279e-17
outer loop
vertex 0.200961894323342 -2.2500000000000004 10
vertex 0.4393398282201788 -2.5606601717798196 30
vertex 0.200961894323342 -2.2499999999999982 30
endloop
endfacet
facet normal 0 0 -1
outer loop
vertex 0.4393398282201788 -2.560660171779822 10
vertex 0.200961894323342 -2.2500000000000004 10
vertex 1.5 -1.5000000000000007 10
endloop
endfacet
facet normal 0 0 1
outer loop
vertex 0.0511112605663977 -1.8882285676537798 30
vertex 0.200961894323342 -2.2499999999999982 30
vertex 1.5 -1.4999999999999982 30
endloop
endfacet
facet normal -0.9238795325112866 -0.38268343236508995 4.2528744834349214e-17
outer loop
vertex 0.0511112605663977 -1.8882285676537822 10
vertex 0.200961894323342 -2.2500000000000004 10
vertex 0.200961894323342 -2.2499999999999982 30
endloop
endfacet
facet normal -0.9238795325112866 -0.38268343236508995 4.2528744834349214e-17
outer loop
vertex 0.0511112605663977 -1.8882285676537822 10
vertex 0.200961894323342 -2.2499999999999982 30
vertex 0.0511112605663977 -1.8882285676537798 30
endloop
endfacet
facet normal 0 0 -1
outer loop
vertex 0.200961894323342 -2.2500000000000004 10
vertex 0.0511112605663977 -1.8882285676537822 10
vertex 1.5 -1.5000000000000007 10
endloop
endfacet
facet normal 0 0 1
outer loop
vertex 0 -1.4999999999999984 30
vertex 0.0511112605663977 -1.8882285676537798 30
vertex 1.5 -1.4999999999999982 30
endloop
endfacet
facet normal -0.9914448613738104 -0.13052619222005185 1.594827931288092e-17
outer loop
vertex 0 -1.5000000000000009 10
vertex 0.0511112605663977 -1.8882285676537822 10
vertex 0.0511112605663977 -1.8882285676537798 30
endloop
endfacet
facet normal -0.9914448613738104 -0.13052619222005185 1.594827931288092e-17
outer loop
vertex 0 -1.5000000000000009 10
vertex 0.0511112605663977 -1.8882285676537798 30
vertex 0 -1.4999999999999984 30
endloop
endfacet
facet normal 0 0 -1
outer loop
vertex 0.0511112605663977 -1.8882285676537822 10
vertex 0 -1.5000000000000009 10
vertex 1.5 -1.5000000000000007 10
endloop
endfacet
facet normal 0 0 1
outer loop
vertex 0.051111260566397476 -1.1117714323462176 30
vertex 0 -1.4999999999999984 30
vertex 1.5 -1.4999999999999982 30
endloop
endfacet
facet normal -0.9914448613738105 0.13052619222005143 -1.594827931288094e-17
outer loop
vertex 0.051111260566397476 -1.11177143234622 10
vertex 0 -1.5000000000000009 10
vertex 0 -1.4999999999999984 30
endloop
endfacet
facet normal -0.9914448613738105 0.13052619222005143 -1.594827931288094e-17
outer loop
vertex 0.051111260566397476 -1.11177143234622 10
vertex 0 -1.4999999999999984 30
vertex 0.051111260566397476 -1.1117714323462176 30
endloop
endfacet
facet normal 0 0 -1
outer loop
vertex 0 -1.5000000000000009 10
vertex 0.051111260566397476 -1.11177143234622 10
vertex 1.5 -1.5000000000000007 10
endloop
endfacet
facet normal 0 0 1
outer loop
vertex 0.200961894323342 -0.7499999999999982 30
vertex 0.051111260566397476 -1.1117714323462176 30
vertex 1.5 -1.4999999999999982 30
endloop
endfacet
facet normal -0.9238795325112868 0.38268343236508967 -4.695882242126048e-17
outer loop
vertex 0.200961894323342 -0.7500000000000009 10
vertex 0.051111260566397476 -1.11177143234622 10
vertex 0.051111260566397476 -1.1117714323462176 30
endloop
endfacet
facet normal -0.9238795325112868 0.38268343236508967 -4.695882242126048e-17
outer loop
vertex 0.200961894323342 -0.7500000000000009 10
vertex 0.051111260566397476 -1.1117714323462176 30
vertex 0.200961894323342 -0.7499999999999982 30
endloop
endfacet
facet normal 0 0 -1
outer loop
vertex 0.051111260566397476 -1.11177143234622 10
vertex 0.200961894323342 -0.7500000000000009 10
vertex 1.5 -1.5000000000000007 10
endloop
endfacet
facet normal 0 0 1
outer loop
vertex 0.4393398282201786 -0.43933982822017725 30
vertex 0.200961894323342 -0.7499999999999982 30
vertex 1.5 -1.4999999999999982 30
endloop
endfacet
facet normal -0.793353340291235 0.6087614290087209 -7.974139656440471e-17
outer loop
vertex 0.4393398282201786 -0.4393398282201799 10
vertex 0.200961894323342 -0.7500000000000009 10
vertex 0.200961894323342 -0.7499999999999982 30
endloop
endfacet
facet normal -0.793353340291235 0.6087614290087209 -7.974139656440471e-17
outer loop
vertex 0.4393398282201786 -0.4393398282201799 10
vertex 0.200961894323342 -0.7499999999999982 30
vertex 0.4393398282201786 -0.43933982822017725 30
endloop
endfacet
facet normal 0 0 -1
outer loop
vertex 0.200961894323342 -0.7500000000000009 10
vertex 0.4393398282201786 -0.4393398282201799 10
vertex 1.5 -1.5000000000000007 10
endloop
endfacet
facet normal 0 0 1
outer loop
vertex 0.7499999999999993 -0.20096189432334022 30
vertex 0.4393398282201786 -0.43933982822017725 30
vertex 1.5 -1.4999999999999982 30
endloop
endfacet
facet normal -0.6087614290087219 0.7933533402912343 -1.0454983105110838e-16
outer loop
vertex 0.7499999999999993 -0.20096189432334288 10
vertex 0.4393398282201786 -0.4393398282201799 10
vertex 0.4393398282201786 -0.43933982822017725 30
endloop
endfacet
facet normal -0.6087614290087219 0.7933533402912343 -1.0454983105110838e-16
outer loop
vertex 0.7499999999999993 -0.20096189432334288 10
vertex 0.4393398282201786 -0.43933982822017725 30
vertex 0.7499999999999993 -0.20096189432334022 30
endloop
endfacet
facet normal 0 0 -1
outer loop
vertex 0.4393398282201786 -0.4393398282201799 10
vertex 0.7499999999999993 -0.20096189432334288 10
vertex 1.5 -1.5000000000000007 10
endloop
endfacet
facet normal 0 0 1
outer loop
vertex 1.1117714323462191 -0.0511112605663957 30
vertex 0.7499999999999993 -0.20096189432334022 30
vertex 1.5 -1.4999999999999982 30
endloop
endfacet
facet normal -0.38268343236508906 0.9238795325112871 -1.2315615691613578e-16
outer loop
vertex 1.1117714323462191 -0.051111260566398364 10
vertex 0.7499999999999993 -0.20096189432334288 10
vertex 0.7499999999999993 -0.20096189432334022 30
endloop
endfacet
facet normal -0.38268343236508906 0.9238795325112871 -1.2315615691613578e-16
outer loop
vertex 1.1117714323462191 -0.051111260566398364 10
vertex 0.7499999999999993 -0.20096189432334022 30
vertex 1.1117714323462191 -0.0511112605663957 30
endloop
endfacet
facet normal 0 0 -1
outer loop
vertex 0.7499999999999993 -0.20096189432334288 10
vertex 1.1117714323462191 -0.051111260566398364 10
vertex 1.5 -1.5000000000000007 10
endloop
endfacet
facet normal 0 0 1
outer loop
vertex 1.4999999999999998 1.7763568394002505e-15 30
vertex 1.1117714323462191 -0.0511112605663957 30
vertex 1.5 -1.4999999999999982 30
endloop
endfacet
facet normal -0.1305261922200515 0.9914448613738104 -1.3201631208995895e-16
outer loop
vertex 1.4999999999999998 -8.881784197001252e-16 10
vertex 1.1117714323462191 -0.051111260566398364 10
vertex 1.1117714323462191 -0.0511112605663957 30
endloop
endfacet
facet normal -0.1305261922200515 0.9914448613738104 -1.3201631208995895e-16
outer loop
vertex 1.4999999999999998 -8.881784197001252e-16 10
vertex 1.1117714323462191 -0.0511112605663957 30
vertex 1.4999999999999998 1.7763568394002505e-15 30
endloop
endfacet
facet normal 0 0 -1
outer loop
vertex 1.1117714323462191 -0.051111260566398364 10
vertex 1.4999999999999998 -8.881784197001252e-16 10
vertex 1.5 -1.5000000000000007 10
endloop
endfacet
facet normal 0 0 1
outer loop
vertex 1.8882285676537804 -0.0511112605663957 30
vertex 1.4999999999999998 1.7763568394002505e-15 30
vertex 1.5 -1.4999999999999982 30
endloop
endfacet
facet normal 0.1305261922200515 0.9914448613738104 -1.3201631208995895e-16
outer loop
vertex 1.8882285676537804 -0.051111260566398364 10
vertex 1.4999999999999998 -8.881784197001252e-16 10
vertex 1.4999999999999998 1.7763568394002505e-15 30
endloop
endfacet
facet normal 0.1305261922200515 0.9914448613738104 -1.3201631208995895e-16
outer loop
vertex 1.8882285676537804 -0.051111260566398364 10
vertex 1.4999999999999998 1.7763568394002505e-15 30
vertex 1.8882285676537804 -0.0511112605663957 30
endloop
endfacet
facet normal 0 0 -1
outer loop
vertex 1.4999999999999998 -8.881784197001252e-16 10
vertex 1.8882285676537804 -0.051111260566398364 10
vertex 1.5 -1.5000000000000007 10
endloop
endfacet
facet normal 0 0 1
outer loop
vertex 2.25 -0.20096189432334022 30
vertex 1.8882285676537804 -0.0511112605663957 30
vertex 1.5 -1.4999999999999982 30
endloop
endfacet
facet normal 0.3826834323650892 0.9238795325112868 -1.2315615691613586e-16
outer loop
vertex 2.25 -0.20096189432334288 10
vertex 1.8882285676537804 -0.051111260566398364 10
vertex 1.8882285676537804 -0.0511112605663957 30
endloop
endfacet
facet normal 0.3826834323650892 0.9238795325112868 -1.2315615691613586e-16
outer loop
vertex 2.25 -0.20096189432334288 10
vertex 1.8882285676537804 -0.0511112605663957 30
vertex 2.25 -0.20096189432334022 30
endloop
endfacet
facet normal 0 0 -1
outer loop
vertex 1.8882285676537804 -0.051111260566398364 10
vertex 2.25 -0.20096189432334288 10
vertex 1.5 -1.5000000000000007 10
endloop
endfacet
facet normal 0 0 1
outer loop
vertex 2.560660171779821 -0.4393398282201768 30
vertex 2.25 -0.20096189432334022 30
vertex 1.5 -1.4999999999999982 30
endloop
endfacet
facet normal 0.6087614290087209 0.793353340291235 -1.0632186208587295e-16
outer loop
vertex 2.560660171779821 -0.4393398282201795 10
vertex 2.25 -0.20096189432334288 10
vertex 2.25 -0.20096189432334022 30
endloop
endfacet
facet normal 0.6087614290087209 0.793353340291235 -1.0632186208587295e-16
outer loop
vertex 2.560660171779821 -0.4393398282201795 10
vertex 2.25 -0.20096189432334022 30
vertex 2.560660171779821 -0.4393398282201768 30
endloop
endfacet
facet normal 0 0 -1
outer loop
vertex 2.25 -0.20096189432334288 10
vertex 2.560660171779821 -0.4393398282201795 10
vertex 1.5 -1.5000000000000007 10
endloop
endfacet
facet normal 0 0 1
outer loop
vertex 2.7990381056766576 -0.7499999999999973 30
vertex 2.560660171779821 -0.4393398282201768 30
vertex 1.5 -1.4999999999999982 30
endloop
endfacet
facet normal 0.7933533402912345 0.6087614290087214 -7.974139656440478e-17
outer loop
vertex 2.7990381056766576 -0.75 10
vertex 2.560660171779821 -0.4393398282201795 10
vertex 2.560660171779821 -0.4393398282201768 30
endloop
endfacet
facet normal 0.7933533402912345 0.6087614290087214 -7.974139656440478e-17
outer loop
vertex 2.7990381056766576 -0.75 10
vertex 2.560660171779821 -0.4393398282201768 30
vertex 2.7990381056766576 -0.7499999999999973 30
endloop
endfacet
facet normal 0 0 -1
outer loop
vertex 2.560660171779821 -0.4393398282201795 10
vertex 2.7990381056766576 -0.75 10
vertex 1.5 -1.5000000000000007 10
endloop
endfacet
facet normal 0 0 1
outer loop
vertex 2.9488887394336025 -1.1117714323462171 30
vertex 2.7990381056766576 -0.7499999999999973 30
vertex 1.5 -1.4999999999999982 30
endloop
endfacet
facet normal 0.9238795325112866 0.3826834323650902 -5.1388900008171776e-17
outer loop
vertex 2.9488887394336025 -1.1117714323462196 10
vertex 2.7990381056766576 -0.75 10
vertex 2.7990381056766576 -0.7499999999999973 30
endloop
endfacet
facet normal 0.9238795325112866 0.3826834323650902 -5.1388900008171776e-17
outer loop
vertex 2.9488887394336025 -1.1117714323462196 10
vertex 2.7990381056766576 -0.7499999999999973 30
vertex 2.9488887394336025 -1.1117714323462171 30
endloop
endfacet
facet normal 0 0 -1
outer loop
vertex 2.7990381056766576 -0.75 10
vertex 2.9488887394336025 -1.1117714323462196 10
vertex 1.5 -1.5000000000000007 10
endloop
endfacet
facet normal 0 0 1
outer loop
vertex 3 -1.4999999999999978 30
vertex 2.9488887394336025 -1.1117714323462171 30
vertex 1.5 -1.4999999999999982 30
endloop
endfacet
facet normal 0.9914448613738104 0.1305261922200515 -1.5948279312880948e-17
outer loop
vertex 3 -1.5000000000000002 10
vertex 2.9488887394336025 -1.1117714323462196 10
vertex 2.9488887394336025 -1.1117714323462171 30
endloop
endfacet
facet normal 0.9914448613738104 0.1305261922200515 -1.5948279312880948e-17
outer loop
vertex 3 -1.5000000000000002 10
vertex 2.9488887394336025 -1.1117714323462171 30
vertex 3 -1.4999999999999978 30
endloop
endfacet
facet normal 0 0 -1
outer loop
vertex 2.9488887394336025 -1.1117714323462196 10
vertex 3 -1.5000000000000002 10
vertex 1.5 -1.5000000000000007 10
endloop
endfacet
endsolid craftml
