solid t-shirti BLANK 3
facet normal 0.4906118690892112 -0.8713782151906202 5.404973517593433e-16
  outer loop
    vertex 102.23219601828218 73.14239291826996 2.254466391883271
    vertex 87.31039098786583 64.74097258375325 0.0
    vertex 102.49082641516078 73.2880095290641 0.0
  endloop
endfacet
facet normal 0.4906118690892112 -0.8713782151906202 5.404973517593433e-16
  outer loop
    vertex 87.31039098786583 64.74097258375325 0.0
    vertex 102.23219601828218 73.14239291826996 2.254466391883271
    vertex 87.56902138474446 64.88658919454738 2.254466391883261
  endloop
endfacet
facet normal 0.4906118690892112 -0.8713782151906202 5.404973517593433e-16
  outer loop
    vertex 87.56902138474446 64.88658919454738 2.254466391883261
    vertex 102.23219601828218 73.14239291826996 2.254466391883271
    vertex 88.32728734123997 65.31351549554701 4.355294624841551
  endloop
endfacet
facet normal 0.4906118690892112 -0.8713782151906202 5.404973517593433e-16
  outer loop
    vertex 88.32728734123997 65.31351549554701 4.355294624841551
    vertex 102.23219601828218 73.14239291826996 2.254466391883271
    vertex 101.47393006178666 72.71546661727034 4.355294624841556
  endloop
endfacet
facet normal 0.4906118690892112 -0.8713782151906202 5.404973517593433e-16
  outer loop
    vertex 88.32728734123997 65.31351549554701 4.355294624841551
    vertex 101.47393006178666 72.71546661727034 4.355294624841556
    vertex 89.53351428551093 65.99265716486805 6.159316726581562
  endloop
endfacet
facet normal 0.4906118690892112 -0.8713782151906202 5.404973517593433e-16
  outer loop
    vertex 89.53351428551093 65.99265716486805 6.159316726581562
    vertex 101.47393006178666 72.71546661727034 4.355294624841556
    vertex 100.26770311751568 72.0363249479493 6.159316726581566
  endloop
endfacet
facet normal 0.4906118690892112 -0.8713782151906202 5.404973517593433e-16
  outer loop
    vertex 89.53351428551093 65.99265716486805 6.159316726581562
    vertex 100.26770311751568 72.0363249479493 6.159316726581566
    vertex 91.10549984468958 66.87773182008097 7.5435915721572
  endloop
endfacet
facet normal 0.4906118690892112 -0.8713782151906202 5.404973517593433e-16
  outer loop
    vertex 91.10549984468958 66.87773182008097 7.5435915721572
    vertex 100.26770311751568 72.0363249479493 6.159316726581566
    vertex 98.69571755833705 71.15125029273638 7.543591572157206
  endloop
endfacet
facet normal 0.4906118690892112 -0.8713782151906202 5.404973517593433e-16
  outer loop
    vertex 91.10549984468958 66.87773182008097 7.5435915721572
    vertex 98.69571755833705 71.15125029273638 7.543591572157206
    vertex 92.93611580074683 67.90842308608802 8.413783118464828
  endloop
endfacet
facet normal 0.4906118690892112 -0.8713782151906202 5.404973517593433e-16
  outer loop
    vertex 92.93611580074683 67.90842308608802 8.413783118464828
    vertex 98.69571755833705 71.15125029273638 7.543591572157206
    vertex 96.86510160227978 70.12055902672934 8.413783118464831
  endloop
endfacet
facet normal 0.4906118690892112 -0.8713782151906202 5.404973517593433e-16
  outer loop
    vertex 92.93611580074683 67.90842308608802 8.413783118464828
    vertex 96.86510160227978 70.12055902672934 8.413783118464831
    vertex 94.9006087015133 69.01449105640867 8.710589249683105
  endloop
endfacet
facet normal -0.499609200540733 -0.8662509144209026 4.995263938250704e-16
  outer loop
    vertex 42.055563739153854 65.83681706021936 2.2344624290902044
    vertex 27.353183169779484 74.31639783759867 0.0
    vertex 42.31039098786584 65.68984574291909 0.0
  endloop
endfacet
facet normal -0.499609200540733 -0.8662509144209026 4.995263938250704e-16
  outer loop
    vertex 27.353183169779484 74.31639783759867 0.0
    vertex 42.055563739153854 65.83681706021936 2.2344624290902044
    vertex 27.608010418491475 74.1694265202984 2.2344624290901938
  endloop
endfacet
facet normal -0.499609200540733 -0.8662509144209026 4.995263938250704e-16
  outer loop
    vertex 27.608010418491475 74.1694265202984 2.2344624290901938
    vertex 42.055563739153854 65.83681706021936 2.2344624290902044
    vertex 28.355126108749662 73.73852842079006 4.316649936261653
  endloop
endfacet
facet normal -0.499609200540733 -0.8662509144209026 4.995263938250704e-16
  outer loop
    vertex 28.355126108749662 73.73852842079006 4.316649936261653
    vertex 42.055563739153854 65.83681706021936 2.2344624290902044
    vertex 41.30844804889566 66.2677151597277 4.316649936261658
  endloop
endfacet
facet normal -0.499609200540733 -0.8662509144209026 4.995263938250704e-16
  outer loop
    vertex 28.355126108749662 73.73852842079006 4.316649936261653
    vertex 41.30844804889566 66.2677151597277 4.316649936261658
    vertex 29.543615540930002 73.05306853246235 6.104664883878185
  endloop
endfacet
facet normal -0.499609200540733 -0.8662509144209026 4.995263938250704e-16
  outer loop
    vertex 29.543615540930002 73.05306853246235 6.104664883878185
    vertex 41.30844804889566 66.2677151597277 4.316649936261658
    vertex 40.119958616715316 66.95317504805541 6.104664883878191
  endloop
endfacet
facet normal -0.499609200540733 -0.8662509144209026 4.995263938250704e-16
  outer loop
    vertex 29.543615540930002 73.05306853246235 6.104664883878185
    vertex 40.119958616715316 66.95317504805541 6.104664883878191
    vertex 31.09248512430107 72.15975981392877 7.476657008094141
  endloop
endfacet
facet normal -0.499609200540733 -0.8662509144209026 4.995263938250704e-16
  outer loop
    vertex 31.09248512430107 72.15975981392877 7.476657008094141
    vertex 40.119958616715316 66.95317504805541 6.104664883878191
    vertex 38.57108903334424 67.84648376658899 7.476657008094146
  endloop
endfacet
facet normal -0.499609200540733 -0.8662509144209026 4.995263938250704e-16
  outer loop
    vertex 31.09248512430107 72.15975981392877 7.476657008094141
    vertex 38.57108903334424 67.84648376658899 7.476657008094146
    vertex 32.89618195638412 71.11947977809496 8.339127312968385
  endloop
endfacet
facet normal -0.499609200540733 -0.8662509144209026 4.995263938250704e-16
  outer loop
    vertex 32.89618195638412 71.11947977809496 8.339127312968385
    vertex 38.57108903334424 67.84648376658899 7.476657008094146
    vertex 36.767392201261195 68.88676380242283 8.339127312968387
  endloop
endfacet
facet normal -0.499609200540733 -0.8662509144209026 4.995263938250704e-16
  outer loop
    vertex 32.89618195638412 71.11947977809496 8.339127312968385
    vertex 36.767392201261195 68.88676380242283 8.339127312968387
    vertex 34.831787078822664 70.00312179025889 8.63329987252331
  endloop
endfacet
facet normal 0.0 -1.0 0.0
  outer loop
    vertex 86.92705653361784 29.94874845711242 2.9117142574033665
    vertex 42.31039098786584 29.94874845711242 0.0
    vertex 87.31039098786583 29.94874845711242 0.0
  endloop
endfacet
facet normal 0.0 -1.0 0.0
  outer loop
    vertex 42.31039098786584 29.94874845711242 0.0
    vertex 86.92705653361784 29.94874845711242 2.9117142574033665
    vertex 42.554792842833336 29.94874845711242 1.8564163950270174
  endloop
endfacet
facet normal 0.0 -1.0 0.0
  outer loop
    vertex 42.554792842833336 29.94874845711242 1.8564163950270174
    vertex 86.92705653361784 29.94874845711242 2.9117142574033665
    vertex 43.07705989636181 29.94874845711242 5.8234285148067055
  endloop
endfacet
facet normal 0.0 -1.0 0.0
  outer loop
    vertex 43.07705989636181 29.94874845711242 5.8234285148067055
    vertex 86.92705653361784 29.94874845711242 2.9117142574033665
    vertex 86.54372207936987 29.94874845711242 5.823428514806733
  endloop
endfacet
facet normal 0.0 -1.0 0.0
  outer loop
    vertex 43.07705989636181 29.94874845711242 5.8234285148067055
    vertex 86.54372207936987 29.94874845711242 5.823428514806733
    vertex 45.324819402715974 29.94874845711242 11.249999999999991
  endloop
endfacet
facet normal 0.0 -1.0 0.0
  outer loop
    vertex 45.324819402715974 29.94874845711242 11.249999999999991
    vertex 86.54372207936987 29.94874845711242 5.823428514806733
    vertex 84.2959625730157 29.94874845711242 11.250000000000005
  endloop
endfacet
facet normal 0.0 -1.0 0.0
  outer loop
    vertex 45.324819402715974 29.94874845711242 11.249999999999991
    vertex 84.2959625730157 29.94874845711242 11.250000000000005
    vertex 48.90048841116852 29.94874845711242 15.909902576697306
  endloop
endfacet
facet normal 0.0 -1.0 0.0
  outer loop
    vertex 48.90048841116852 29.94874845711242 15.909902576697306
    vertex 84.2959625730157 29.94874845711242 11.250000000000005
    vertex 80.72029356456315 29.94874845711242 15.909902576697316
  endloop
endfacet
facet normal 0.0 -1.0 0.0
  outer loop
    vertex 48.90048841116852 29.94874845711242 15.909902576697306
    vertex 80.72029356456315 29.94874845711242 15.909902576697316
    vertex 53.56039098786584 29.94874845711242 19.485571585149856
  endloop
endfacet
facet normal 0.0 -1.0 0.0
  outer loop
    vertex 53.56039098786584 29.94874845711242 19.485571585149856
    vertex 80.72029356456315 29.94874845711242 15.909902576697316
    vertex 76.06039098786582 29.94874845711242 19.485571585149874
  endloop
endfacet
facet normal 0.0 -1.0 0.0
  outer loop
    vertex 53.56039098786584 29.94874845711242 19.485571585149856
    vertex 76.06039098786582 29.94874845711242 19.485571585149874
    vertex 58.98696247305911 29.94874845711242 21.733331091504024
  endloop
endfacet
facet normal 0.0 -1.0 0.0
  outer loop
    vertex 58.98696247305911 29.94874845711242 21.733331091504024
    vertex 76.06039098786582 29.94874845711242 19.485571585149874
    vertex 70.63381950267254 29.94874845711242 21.73333109150403
  endloop
endfacet
facet normal 0.0 -1.0 0.0
  outer loop
    vertex 58.98696247305911 29.94874845711242 21.733331091504024
    vertex 70.63381950267254 29.94874845711242 21.73333109150403
    vertex 64.81039098786584 29.94874845711242 22.499999999999993
  endloop
endfacet
facet normal 0.3826834317733712 -5.560999416103959e-05 0.9238795310827512
  outer loop
    vertex 76.06039098786582 29.94874845711242 19.485571585149874
    vertex 70.6440354019209 100.25005745711248 21.733331091504024
    vertex 70.63381950267254 29.94874845711242 21.73333109150403
  endloop
endfacet
facet normal 0.3826834317733712 -5.560999416103959e-05 0.9238795310827512
  outer loop
    vertex 70.6440354019209 100.25005745711248 21.733331091504024
    vertex 76.06039098786582 29.94874845711242 19.485571585149874
    vertex 76.07060688711418 100.25005745711248 19.485571585149856
  endloop
endfacet
facet normal 0.6087614266267424 -8.84627255046989e-05 0.793353337186981
  outer loop
    vertex 80.72029356456315 29.94874845711242 15.909902576697316
    vertex 76.07060688711418 100.25005745711248 19.485571585149856
    vertex 76.06039098786582 29.94874845711242 19.485571585149874
  endloop
endfacet
facet normal 0.6087614266267424 -8.84627255046989e-05 0.793353337186981
  outer loop
    vertex 76.07060688711418 100.25005745711248 19.485571585149856
    vertex 80.72029356456315 29.94874845711242 15.909902576697316
    vertex 80.73050946381149 100.25005745711248 15.909902576697311
  endloop
endfacet
facet normal 0.7933533350189808 -0.00011528686811339988 0.608761424963178
  outer loop
    vertex 83.9229888673743 89.88170692651501 11.747418863788917
    vertex 80.72029356456315 29.94874845711242 15.909902576697316
    vertex 84.2959625730157 29.94874845711242 11.250000000000005
  endloop
endfacet
facet normal 0.7933533350189808 -0.00011528686811339988 0.608761424963178
  outer loop
    vertex 80.72029356456315 29.94874845711242 15.909902576697316
    vertex 83.9229888673743 89.88170692651501 11.747418863788917
    vertex 80.73050946381149 100.25005745711248 15.909902576697311
  endloop
endfacet
facet normal 0.7933533350189808 -0.00011528686811339988 0.608761424963178
  outer loop
    vertex 80.73050946381149 100.25005745711248 15.909902576697311
    vertex 83.9229888673743 89.88170692651501 11.747418863788917
    vertex 83.85846473545179 100.25005745711248 11.833471901583273
  endloop
endfacet
facet normal -0.38268343177337183 5.560999416103558e-05 0.923879531082751
  outer loop
    vertex 58.98696247305911 29.94874845711242 21.733331091504024
    vertex 53.57060688711418 100.25005745711248 19.485571585149863
    vertex 53.56039098786584 29.94874845711242 19.485571585149856
  endloop
endfacet
facet normal -0.38268343177337183 5.560999416103558e-05 0.923879531082751
  outer loop
    vertex 53.57060688711418 100.25005745711248 19.485571585149863
    vertex 58.98696247305911 29.94874845711242 21.733331091504024
    vertex 58.99717837230746 100.25005745711248 21.73333109150403
  endloop
endfacet
facet normal -0.6087614266267425 8.846272550473053e-05 0.793353337186981
  outer loop
    vertex 53.56039098786584 29.94874845711242 19.485571585149856
    vertex 48.91070431041686 100.25005745711248 15.909902576697315
    vertex 48.90048841116852 29.94874845711242 15.909902576697306
  endloop
endfacet
facet normal -0.6087614266267425 8.846272550473053e-05 0.793353337186981
  outer loop
    vertex 48.91070431041686 100.25005745711248 15.909902576697315
    vertex 53.56039098786584 29.94874845711242 19.485571585149856
    vertex 53.57060688711418 100.25005745711248 19.485571585149863
  endloop
endfacet
facet normal -0.8588400177629685 0.4953349745711869 0.13052619222005146
  outer loop
    vertex 40.57556895805915 97.24212412031429 0.0
    vertex 27.353183169779484 74.31639783759867 0.0
    vertex 27.608010418491475 74.1694265202984 2.2344624290901938
  endloop
endfacet
facet normal -0.871750389628906 0.48995026092640315 0.0
  outer loop
    vertex 40.57556895805915 97.24212412031429 5.709498624841553
    vertex 40.57556895805915 97.24212412031429 0.0
    vertex 27.608010418491475 74.1694265202984 2.2344624290901938
  endloop
endfacet
facet normal -0.871750389628906 0.48995026092640315 0.0
  outer loop
    vertex 40.57556895805915 97.24212412031429 0.0
    vertex 40.57556895805915 97.24212412031429 5.709498624841553
    vertex 40.57556895805915 97.24212412031429 2.7084079999999995
  endloop
endfacet
facet normal -0.9098424930676712 0.4149537779179807 0.0
  outer loop
    vertex 40.57556895805915 97.24212412031429 5.709498624841553
    vertex 29.543615540930002 73.05306853246235 6.104664883878185
    vertex 40.57556895805915 97.24212412031429 8.710589249683105
  endloop
endfacet
facet normal -0.5899741825205711 0.18438439105952337 0.7860870564338233
  outer loop
    vertex 40.57556895805915 97.24212412031429 8.710589249683105
    vertex 29.543615540930002 73.05306853246235 6.104664883878185
    vertex 31.09248512430107 72.15975981392877 7.476657008094141
  endloop
endfacet
facet normal -0.5001953615634921 0.8659125823490311 -1.9219407195099e-17
  outer loop
    vertex 40.57556895805915 97.24212412031429 2.7084079999999995
    vertex 45.782749038776565 100.25005745711248 0.0
    vertex 40.57556895805915 97.24212412031429 0.0
  endloop
endfacet
facet normal -0.5001953615634921 0.8659125823490311 -1.9219407195099e-17
  outer loop
    vertex 45.782749038776565 100.25005745711248 0.0
    vertex 40.57556895805915 97.24212412031429 2.7084079999999995
    vertex 45.782749038776565 100.25005745711248 11.833471901583277
  endloop
endfacet
facet normal -0.5001953615634921 0.8659125823490311 -1.9219407195099e-17
  outer loop
    vertex 45.782749038776565 100.25005745711248 11.833471901583277
    vertex 40.57556895805915 97.24212412031429 2.7084079999999995
    vertex 40.57556895805915 97.24212412031429 5.709498624841553
  endloop
endfacet
facet normal -0.5001953615634921 0.8659125823490311 -1.9219407195099e-17
  outer loop
    vertex 45.782749038776565 100.25005745711248 11.833471901583277
    vertex 40.57556895805915 97.24212412031429 5.709498624841553
    vertex 40.57556895805915 97.24212412031429 8.710589249683105
  endloop
endfacet
facet normal -0.5804291469244433 0.1803823750679962 0.7940807289976202
  outer loop
    vertex 45.782749038776565 100.25005745711248 11.833471901583277
    vertex 40.57556895805915 97.24212412031429 8.710589249683105
    vertex 31.09248512430107 72.15975981392877 7.476657008094141
  endloop
endfacet
facet normal -0.2644676806512234 -0.00628121444265564 0.9643740935114796
  outer loop
    vertex 45.782749038776565 100.25005745711248 11.833471901583277
    vertex 34.831787078822664 70.00312179025889 8.63329987252331
    vertex 45.70960286613096 89.02066481600015 11.740272569008471
  endloop
endfacet
facet normal 0.04263925972369059 -0.18479813632528813 0.981851079513037
  outer loop
    vertex 45.70960286613096 89.02066481600015 11.740272569008471
    vertex 34.831787078822664 70.00312179025889 8.63329987252331
    vertex 36.767392201261195 68.88676380242283 8.339127312968387
  endloop
endfacet
facet normal -0.17338466893683754 -0.04133301375783764 0.9839864524226731
  outer loop
    vertex 45.782749038776565 100.25005745711248 11.833471901583277
    vertex 32.89618195638412 71.11947977809496 8.339127312968385
    vertex 34.831787078822664 70.00312179025889 8.63329987252331
  endloop
endfacet
facet normal -0.39884201917609885 0.06672769911316664 0.914588682365245
  outer loop
    vertex 45.782749038776565 100.25005745711248 11.833471901583277
    vertex 31.09248512430107 72.15975981392877 7.476657008094141
    vertex 32.89618195638412 71.11947977809496 8.339127312968385
  endloop
endfacet
facet normal -0.7189744483213198 0.3378272067865998 0.6074113276979758
  outer loop
    vertex 40.57556895805915 97.24212412031429 5.709498624841553
    vertex 28.355126108749662 73.73852842079006 4.316649936261653
    vertex 29.543615540930002 73.05306853246235 6.104664883878185
  endloop
endfacet
facet normal -0.8290297945354571 0.40840833929592824 0.38198459152960557
  outer loop
    vertex 40.57556895805915 97.24212412031429 5.709498624841553
    vertex 27.608010418491475 74.1694265202984 2.2344624290901938
    vertex 28.355126108749662 73.73852842079006 4.316649936261653
  endloop
endfacet
facet normal 0.2785529843839499 -0.27896150085383087 0.919015079273552
  outer loop
    vertex 45.70960286613096 89.02066481600015 11.740272569008471
    vertex 36.767392201261195 68.88676380242283 8.339127312968387
    vertex 38.57108903334424 67.84648376658899 7.476657008094146
  endloop
endfacet
facet normal 0.5109514917628925 -0.3319244328226351 0.7929405677354683
  outer loop
    vertex 45.70960286613096 89.02066481600015 11.740272569008471
    vertex 38.57108903334424 67.84648376658899 7.476657008094146
    vertex 40.119958616715316 66.95317504805541 6.104664883878191
  endloop
endfacet
facet normal 0.7192435042924107 -0.33729757969873203 0.6073871288252252
  outer loop
    vertex 45.70960286613096 89.02066481600015 11.740272569008471
    vertex 40.119958616715316 66.95317504805541 6.104664883878191
    vertex 41.30844804889566 66.2677151597277 4.316649936261658
  endloop
endfacet
facet normal -0.9909654380879845 0.031094800054728592 0.13046307494707254
  outer loop
    vertex 45.70960286613096 89.02066481600015 11.740272569008471
    vertex 42.554792842833336 29.94874845711242 1.8564163950270174
    vertex 43.07705989636181 29.94874845711242 5.8234285148067055
  endloop
endfacet
facet normal -0.9909654380879845 0.031094800054728592 0.13046307494707254
  outer loop
    vertex 42.554792842833336 29.94874845711242 1.8564163950270174
    vertex 45.70960286613096 89.02066481600015 11.740272569008471
    vertex 42.31039098786584 29.94874845711242 0.0
  endloop
endfacet
facet normal 0.8791481318259202 -0.292743711057943 0.37603149062680635
  outer loop
    vertex 45.70960286613096 89.02066481600015 11.740272569008471
    vertex 41.30844804889566 66.2677151597277 4.316649936261658
    vertex 42.055563739153854 65.83681706021936 2.2344624290902044
  endloop
endfacet
facet normal 0.9710737525670808 -0.2039605110294548 0.12416069030047912
  outer loop
    vertex 45.70960286613096 89.02066481600015 11.740272569008471
    vertex 42.055563739153854 65.83681706021936 2.2344624290902044
    vertex 42.31039098786584 65.68984574291909 0.0
  endloop
endfacet
facet normal -0.960548705517713 -2.3634348807114748e-17 0.2781118198283666
  outer loop
    vertex 45.70960286613096 89.02066481600015 11.740272569008471
    vertex 42.31039098786584 65.68984574291909 0.0
    vertex 42.31039098786584 29.94874845711242 0.0
  endloop
endfacet
facet normal -0.9238758018190248 0.0028418529354377973 0.3826818870617573
  outer loop
    vertex 45.70960286613096 89.02066481600015 11.740272569008471
    vertex 43.07705989636181 29.94874845711242 5.8234285148067055
    vertex 45.324819402715974 29.94874845711242 11.249999999999991
  endloop
endfacet
facet normal -0.7933533350189812 0.00011528686811343424 0.6087614249631773
  outer loop
    vertex 48.91070431041686 100.25005745711248 15.909902576697315
    vertex 45.324819402715974 29.94874845711242 11.249999999999991
    vertex 48.90048841116852 29.94874845711242 15.909902576697306
  endloop
endfacet
facet normal -0.7933533350189812 0.00011528686811343424 0.6087614249631773
  outer loop
    vertex 45.324819402715974 29.94874845711242 11.249999999999991
    vertex 48.91070431041686 100.25005745711248 15.909902576697315
    vertex 45.70960286613096 89.02066481600015 11.740272569008471
  endloop
endfacet
facet normal -0.7933533350189812 0.00011528686811343424 0.6087614249631773
  outer loop
    vertex 45.70960286613096 89.02066481600015 11.740272569008471
    vertex 48.91070431041686 100.25005745711248 15.909902576697315
    vertex 45.782749038776565 100.25005745711248 11.833471901583277
  endloop
endfacet
facet normal 0.17029743571939346 -0.03824162359270267 0.984650375317246
  outer loop
    vertex 96.86510160227978 70.12055902672934 8.413783118464831
    vertex 83.85846473545179 100.25005745711248 11.833471901583273
    vertex 94.9006087015133 69.01449105640867 8.710589249683105
  endloop
endfacet
facet normal 0.3970724762890176 0.06752642192225913 0.9152997492166622
  outer loop
    vertex 98.69571755833705 71.15125029273638 7.543591572157206
    vertex 83.85846473545179 100.25005745711248 11.833471901583273
    vertex 96.86510160227978 70.12055902672934 8.413783118464831
  endloop
endfacet
facet normal 0.25523539860219946 -0.006436142772504271 0.9668575217510532
  outer loop
    vertex 94.9006087015133 69.01449105640867 8.710589249683105
    vertex 83.85846473545179 100.25005745711248 11.833471901583273
    vertex 83.9229888673743 89.88170692651501 11.747418863788917
  endloop
endfacet
facet normal -0.05248769285658576 -0.1708012378777051 0.9839064890720238
  outer loop
    vertex 94.9006087015133 69.01449105640867 8.710589249683105
    vertex 83.9229888673743 89.88170692651501 11.747418863788917
    vertex 92.93611580074683 67.90842308608802 8.413783118464828
  endloop
endfacet
facet normal -0.2916569897490011 -0.25931604882799236 0.9207015733400206
  outer loop
    vertex 92.93611580074683 67.90842308608802 8.413783118464828
    vertex 83.9229888673743 89.88170692651501 11.747418863788917
    vertex 91.10549984468958 66.87773182008097 7.5435915721572
  endloop
endfacet
facet normal -0.5247082897413583 -0.30879954395140463 0.7932994720356894
  outer loop
    vertex 91.10549984468958 66.87773182008097 7.5435915721572
    vertex 83.9229888673743 89.88170692651501 11.747418863788917
    vertex 89.53351428551093 65.99265716486805 6.159316726581562
  endloop
endfacet
facet normal 0.5046722356692447 0.8633110300144475 -4.941376617751369e-17
  outer loop
    vertex 83.85846473545179 100.25005745711248 11.833471901583273
    vertex 89.0039469785208 97.24212412031429 0.0
    vertex 83.85846473545179 100.25005745711248 0.0
  endloop
endfacet
facet normal 0.5046722356692447 0.8633110300144475 -4.941376617751369e-17
  outer loop
    vertex 89.0039469785208 97.24212412031429 0.0
    vertex 83.85846473545179 100.25005745711248 11.833471901583273
    vertex 89.0039469785208 97.24212412031429 4.864100523800152
  endloop
endfacet
facet normal 0.5046722356692447 0.8633110300144475 -4.941376617751369e-17
  outer loop
    vertex 89.0039469785208 97.24212412031429 4.864100523800152
    vertex 83.85846473545179 100.25005745711248 11.833471901583273
    vertex 89.0039469785208 97.24212412031429 7.5435915721572
  endloop
endfacet
facet normal 0.7036526178666851 0.2613802736281949 0.6607218370293289
  outer loop
    vertex 83.85846473545179 100.25005745711248 11.833471901583273
    vertex 98.69571755833705 71.15125029273638 7.543591572157206
    vertex 89.0039469785208 97.24212412031429 7.5435915721572
  endloop
endfacet
facet normal 0.5751110771516229 0.2136319639771136 0.7896889469308667
  outer loop
    vertex 100.26770311751568 72.0363249479493 6.159316726581566
    vertex 89.0039469785208 97.24212412031429 7.5435915721572
    vertex 98.69571755833705 71.15125029273638 7.543591572157206
  endloop
endfacet
facet normal 0.912987251650618 0.40798808600674985 -2.7097270291940997e-17
  outer loop
    vertex 89.0039469785208 97.24212412031429 7.5435915721572
    vertex 100.26770311751568 72.0363249479493 6.159316726581566
    vertex 89.0039469785208 97.24212412031429 4.864100523800152
  endloop
endfacet
facet normal 0.7126427540462982 0.3497098648097233 0.6081474455755549
  outer loop
    vertex 89.0039469785208 97.24212412031429 4.864100523800152
    vertex 100.26770311751568 72.0363249479493 6.159316726581566
    vertex 101.47393006178666 72.71546661727034 4.355294624841556
  endloop
endfacet
facet normal 0.8268795574694295 0.41247654315709714 0.3822738531266971
  outer loop
    vertex 89.0039469785208 97.24212412031429 4.864100523800152
    vertex 101.47393006178666 72.71546661727034 4.355294624841556
    vertex 102.23219601828218 73.14239291826996 2.254466391883271
  endloop
endfacet
facet normal 0.8639234537638228 0.4864146165374998 0.13052619222004846
  outer loop
    vertex 89.0039469785208 97.24212412031429 0.0
    vertex 102.23219601828218 73.14239291826996 2.254466391883271
    vertex 102.49082641516078 73.2880095290641 0.0
  endloop
endfacet
facet normal 0.876624212949736 0.48117563245685635 -1.0364100643715023e-16
  outer loop
    vertex 89.0039469785208 97.24212412031429 4.864100523800152
    vertex 102.23219601828218 73.14239291826996 2.254466391883271
    vertex 89.0039469785208 97.24212412031429 0.0
  endloop
endfacet
facet normal 0.9238764734878631 0.0025733470859193096 0.382682165276101
  outer loop
    vertex 83.9229888673743 89.88170692651501 11.747418863788917
    vertex 84.2959625730157 29.94874845711242 11.250000000000005
    vertex 86.54372207936987 29.94874845711242 5.823428514806733
  endloop
endfacet
facet normal 0.990985486328868 0.03043785907695547 0.13046571434805548
  outer loop
    vertex 83.9229888673743 89.88170692651501 11.747418863788917
    vertex 86.92705653361784 29.94874845711242 2.9117142574033665
    vertex 87.31039098786583 29.94874845711242 0.0
  endloop
endfacet
facet normal 0.990985486328868 0.03043785907695547 0.13046571434805548
  outer loop
    vertex 86.92705653361784 29.94874845711242 2.9117142574033665
    vertex 83.9229888673743 89.88170692651501 11.747418863788917
    vertex 86.54372207936987 29.94874845711242 5.823428514806733
  endloop
endfacet
facet normal -0.7306417335095189 -0.31347858793069616 0.6065425229637095
  outer loop
    vertex 83.9229888673743 89.88170692651501 11.747418863788917
    vertex 88.32728734123997 65.31351549554701 4.355294624841551
    vertex 89.53351428551093 65.99265716486805 6.159316726581562
  endloop
endfacet
facet normal -0.8862578521334616 -0.27174042593462705 0.3751055324100812
  outer loop
    vertex 83.9229888673743 89.88170692651501 11.747418863788917
    vertex 87.56902138474446 64.88658919454738 2.254466391883261
    vertex 88.32728734123997 65.31351549554701 4.355294624841551
  endloop
endfacet
facet normal 0.9608513882857563 4.983716132269728e-17 0.27706426985328686
  outer loop
    vertex 83.9229888673743 89.88170692651501 11.747418863788917
    vertex 87.31039098786583 29.94874845711242 0.0
    vertex 87.31039098786583 64.74097258375325 0.0
  endloop
endfacet
facet normal -0.974087779281854 -0.1891709627546426 0.1239650963143576
  outer loop
    vertex 83.9229888673743 89.88170692651501 11.747418863788917
    vertex 87.31039098786583 64.74097258375325 0.0
    vertex 87.56902138474446 64.88658919454738 2.254466391883261
  endloop
endfacet
facet normal 0.1305261921965722 -1.8967533431673778e-05 0.9914448611954657
  outer loop
    vertex 70.63381950267254 29.94874845711242 21.73333109150403
    vertex 64.81854140453925 86.03631814706836 22.499999999999993
    vertex 64.81039098786584 29.94874845711242 22.499999999999993
  endloop
endfacet
facet normal 0.1305261921965722 -1.8967533431673778e-05 0.9914448611954657
  outer loop
    vertex 64.81854140453925 86.03631814706836 22.499999999999993
    vertex 70.63381950267254 29.94874845711242 21.73333109150403
    vertex 70.6440354019209 100.25005745711248 21.733331091504024
  endloop
endfacet
facet normal -0.13052619219657213 1.896753343166069e-05 0.9914448611954657
  outer loop
    vertex 64.81039098786584 29.94874845711242 22.499999999999993
    vertex 58.99717837230746 100.25005745711248 21.73333109150403
    vertex 58.98696247305911 29.94874845711242 21.733331091504024
  endloop
endfacet
facet normal -0.13052619219657213 1.896753343166069e-05 0.9914448611954657
  outer loop
    vertex 58.99717837230746 100.25005745711248 21.73333109150403
    vertex 64.81039098786584 29.94874845711242 22.499999999999993
    vertex 64.81854140453925 86.03631814706836 22.499999999999993
  endloop
endfacet
facet normal 0.9914448613738103 0.13052619222005332 -0.0
  outer loop
    vertex 70.84072028094427 101.86314197933304 0.0
    vertex 71.05308688711418 100.25005745711248 6.028810999999996
    vertex 71.05308688711418 100.25005745711248 0.0
  endloop
endfacet
facet normal 0.9914448613738103 0.13052619222005332 -0.0
  outer loop
    vertex 71.05308688711418 100.25005745711248 6.028810999999996
    vertex 70.84072028094427 101.86314197933304 0.0
    vertex 70.84072028094427 101.86314197933304 6.028810999999996
  endloop
endfacet
facet normal 0.9238795325112859 0.3826834323650921 0.0
  outer loop
    vertex 70.2180928956926 103.36629745711247 0.0
    vertex 70.84072028094427 101.86314197933304 6.028810999999996
    vertex 70.84072028094427 101.86314197933304 0.0
  endloop
endfacet
facet normal 0.9238795325112859 0.3826834323650921 0.0
  outer loop
    vertex 70.84072028094427 101.86314197933304 6.028810999999996
    vertex 70.2180928956926 103.36629745711247 0.0
    vertex 70.2180928956926 103.36629745711247 6.028810999999996
  endloop
endfacet
facet normal 0.7933533402912402 0.6087614290087142 0.0
  outer loop
    vertex 69.22763575872371 104.65708632872202 0.0
    vertex 70.2180928956926 103.36629745711247 6.028810999999996
    vertex 70.2180928956926 103.36629745711247 0.0
  endloop
endfacet
facet normal 0.7933533402912402 0.6087614290087142 0.0
  outer loop
    vertex 70.2180928956926 103.36629745711247 6.028810999999996
    vertex 69.22763575872371 104.65708632872202 0.0
    vertex 69.22763575872371 104.65708632872202 6.028810999999996
  endloop
endfacet
facet normal 0.6087614290087174 0.7933533402912375 0.0
  outer loop
    vertex 67.93684688711417 105.64754346569092 6.028810999999996
    vertex 69.22763575872371 104.65708632872202 0.0
    vertex 67.93684688711417 105.64754346569092 0.0
  endloop
endfacet
facet normal 0.6087614290087174 0.7933533402912375 0.0
  outer loop
    vertex 69.22763575872371 104.65708632872202 0.0
    vertex 67.93684688711417 105.64754346569092 6.028810999999996
    vertex 69.22763575872371 104.65708632872202 6.028810999999996
  endloop
endfacet
facet normal 0.3826834323650862 0.9238795325112883 0.0
  outer loop
    vertex 66.43369140933473 106.27017085094256 6.028810999999996
    vertex 67.93684688711417 105.64754346569092 0.0
    vertex 66.43369140933473 106.27017085094256 0.0
  endloop
endfacet
facet normal 0.3826834323650862 0.9238795325112883 0.0
  outer loop
    vertex 67.93684688711417 105.64754346569092 0.0
    vertex 66.43369140933473 106.27017085094256 6.028810999999996
    vertex 67.93684688711417 105.64754346569092 6.028810999999996
  endloop
endfacet
facet normal 0.1305261922200533 0.9914448613738102 0.0
  outer loop
    vertex 64.82060688711418 106.48253745711247 6.028810999999996
    vertex 66.43369140933473 106.27017085094256 0.0
    vertex 64.82060688711418 106.48253745711247 0.0
  endloop
endfacet
facet normal 0.1305261922200533 0.9914448613738102 0.0
  outer loop
    vertex 66.43369140933473 106.27017085094256 0.0
    vertex 64.82060688711418 106.48253745711247 6.028810999999996
    vertex 66.43369140933473 106.27017085094256 6.028810999999996
  endloop
endfacet
facet normal -0.13052619222005238 0.9914448613738103 -0.0
  outer loop
    vertex 63.207522364893606 106.27017085094256 6.028810999999996
    vertex 64.82060688711418 106.48253745711247 0.0
    vertex 63.207522364893606 106.27017085094256 0.0
  endloop
endfacet
facet normal -0.13052619222005238 0.9914448613738103 -0.0
  outer loop
    vertex 64.82060688711418 106.48253745711247 0.0
    vertex 63.207522364893606 106.27017085094256 6.028810999999996
    vertex 64.82060688711418 106.48253745711247 6.028810999999996
  endloop
endfacet
facet normal -0.3826834323650862 0.9238795325112883 -0.0
  outer loop
    vertex 61.70436688711417 105.64754346569092 6.028810999999996
    vertex 63.207522364893606 106.27017085094256 0.0
    vertex 61.70436688711417 105.64754346569092 0.0
  endloop
endfacet
facet normal -0.3826834323650862 0.9238795325112883 -0.0
  outer loop
    vertex 63.207522364893606 106.27017085094256 0.0
    vertex 61.70436688711417 105.64754346569092 6.028810999999996
    vertex 63.207522364893606 106.27017085094256 6.028810999999996
  endloop
endfacet
facet normal -0.6087614290087296 0.7933533402912284 -0.0
  outer loop
    vertex 60.41357801550464 104.657086328722 6.028810999999996
    vertex 61.70436688711417 105.64754346569092 0.0
    vertex 60.41357801550464 104.657086328722 0.0
  endloop
endfacet
facet normal -0.6087614290087296 0.7933533402912284 -0.0
  outer loop
    vertex 61.70436688711417 105.64754346569092 0.0
    vertex 60.41357801550464 104.657086328722 6.028810999999996
    vertex 61.70436688711417 105.64754346569092 6.028810999999996
  endloop
endfacet
facet normal -0.7933533402912316 0.6087614290087252 -0.0
  outer loop
    vertex 60.41357801550464 104.657086328722 6.028810999999996
    vertex 59.42312087853573 103.36629745711247 0.0
    vertex 59.42312087853573 103.36629745711247 6.028810999999996
  endloop
endfacet
facet normal -0.7933533402912316 0.6087614290087252 -0.0
  outer loop
    vertex 59.42312087853573 103.36629745711247 0.0
    vertex 60.41357801550464 104.657086328722 6.028810999999996
    vertex 60.41357801550464 104.657086328722 0.0
  endloop
endfacet
facet normal -0.9238795325112883 0.3826834323650862 -0.0
  outer loop
    vertex 59.42312087853573 103.36629745711247 6.028810999999996
    vertex 58.80049349328409 101.86314197933304 0.0
    vertex 58.80049349328409 101.86314197933304 6.028810999999996
  endloop
endfacet
facet normal -0.9238795325112883 0.3826834323650862 -0.0
  outer loop
    vertex 58.80049349328409 101.86314197933304 0.0
    vertex 59.42312087853573 103.36629745711247 6.028810999999996
    vertex 59.42312087853573 103.36629745711247 0.0
  endloop
endfacet
facet normal -0.9914448613738103 0.13052619222005332 0.0
  outer loop
    vertex 58.80049349328409 101.86314197933304 6.028810999999996
    vertex 58.58812688711417 100.25005745711248 0.0
    vertex 58.58812688711417 100.25005745711248 6.028810999999996
  endloop
endfacet
facet normal -0.9914448613738103 0.13052619222005332 0.0
  outer loop
    vertex 58.58812688711417 100.25005745711248 0.0
    vertex 58.80049349328409 101.86314197933304 6.028810999999996
    vertex 58.80049349328409 101.86314197933304 0.0
  endloop
endfacet
facet normal 0.9939550167945417 0.10978808946767622 -0.0
  outer loop
    vertex 56.46694592749668 100.42458953444698 0.0
    vertex 56.48622400648176 100.25005745711248 6.028810999999996
    vertex 56.48622400648176 100.25005745711248 0.0
  endloop
endfacet
facet normal 0.9939550167945417 0.10978808946767622 -0.0
  outer loop
    vertex 56.48622400648176 100.25005745711248 6.028810999999996
    vertex 56.46694592749668 100.42458953444698 0.0
    vertex 56.46694592749668 100.42458953444698 6.028810999999996
  endloop
endfacet
facet normal 0.9885020693710912 -0.1512073372858295 -0.0
  outer loop
    vertex 56.79676224775239 102.58072905080417 0.0
    vertex 56.46694592749668 100.42458953444698 6.028810999999996
    vertex 56.46694592749668 100.42458953444698 0.0
  endloop
endfacet
facet normal 0.9885020693710912 -0.1512073372858295 -0.0
  outer loop
    vertex 56.46694592749668 100.42458953444698 6.028810999999996
    vertex 56.79676224775239 102.58072905080417 0.0
    vertex 56.79676224775239 102.58072905080417 6.028810999999996
  endloop
endfacet
facet normal 0.915684339496911 -0.4018982338852782 -0.0
  outer loop
    vertex 57.67339032015039 104.57803714966818 0.0
    vertex 56.79676224775239 102.58072905080417 6.028810999999996
    vertex 56.79676224775239 102.58072905080417 0.0
  endloop
endfacet
facet normal 0.915684339496911 -0.4018982338852782 -0.0
  outer loop
    vertex 56.79676224775239 102.58072905080417 6.028810999999996
    vertex 57.67339032015039 104.57803714966818 0.0
    vertex 57.67339032015039 104.57803714966818 6.028810999999996
  endloop
endfacet
facet normal 0.780464235125935 -0.625200430013679 -0.0
  outer loop
    vertex 59.03708939025313 106.28040058480913 0.0
    vertex 57.67339032015039 104.57803714966818 6.028810999999996
    vertex 57.67339032015039 104.57803714966818 0.0
  endloop
endfacet
facet normal 0.780464235125935 -0.625200430013679 -0.0
  outer loop
    vertex 57.67339032015039 104.57803714966818 6.028810999999996
    vertex 59.03708939025313 106.28040058480913 0.0
    vertex 59.03708939025313 106.28040058480913 6.028810999999996
  endloop
endfacet
facet normal 0.5920567829092611 -0.8058962500292057 0.0
  outer loop
    vertex 60.79492562005238 107.57180610141077 6.028810999999996
    vertex 59.03708939025313 106.28040058480913 0.0
    vertex 60.79492562005238 107.57180610141077 0.0
  endloop
endfacet
facet normal 0.5920567829092611 -0.8058962500292057 0.0
  outer loop
    vertex 59.03708939025313 106.28040058480913 0.0
    vertex 60.79492562005238 107.57180610141077 6.028810999999996
    vertex 59.03708939025313 106.28040058480913 6.028810999999996
  endloop
endfacet
facet normal 0.3633016393574085 -0.9316715724117697 0.0
  outer loop
    vertex 62.82710537544906 108.3642465476652 6.028810999999996
    vertex 60.79492562005238 107.57180610141077 0.0
    vertex 62.82710537544906 108.3642465476652 0.0
  endloop
endfacet
facet normal 0.3633016393574085 -0.9316715724117697 0.0
  outer loop
    vertex 60.79492562005238 107.57180610141077 0.0
    vertex 62.82710537544906 108.3642465476652 6.028810999999996
    vertex 60.79492562005238 107.57180610141077 6.028810999999996
  endloop
endfacet
facet normal 0.10978808946770945 -0.9939550167945379 0.0
  outer loop
    vertex 64.99513896444869 108.60371841672996 6.028810999999996
    vertex 62.82710537544906 108.3642465476652 0.0
    vertex 64.99513896444869 108.60371841672996 0.0
  endloop
endfacet
facet normal 0.10978808946770945 -0.9939550167945379 0.0
  outer loop
    vertex 62.82710537544906 108.3642465476652 0.0
    vertex 64.99513896444869 108.60371841672996 6.028810999999996
    vertex 62.82710537544906 108.3642465476652 6.028810999999996
  endloop
endfacet
facet normal -0.15120733728583025 -0.988502069371091 0.0
  outer loop
    vertex 67.15127848080587 108.27390209647426 6.028810999999996
    vertex 64.99513896444869 108.60371841672996 0.0
    vertex 67.15127848080587 108.27390209647426 0.0
  endloop
endfacet
facet normal -0.15120733728583025 -0.988502069371091 0.0
  outer loop
    vertex 64.99513896444869 108.60371841672996 0.0
    vertex 67.15127848080587 108.27390209647426 6.028810999999996
    vertex 64.99513896444869 108.60371841672996 6.028810999999996
  endloop
endfacet
facet normal -0.4018982338852782 -0.915684339496911 0.0
  outer loop
    vertex 69.14858657966987 107.39727402407627 6.028810999999996
    vertex 67.15127848080587 108.27390209647426 0.0
    vertex 69.14858657966987 107.39727402407627 0.0
  endloop
endfacet
facet normal -0.4018982338852782 -0.915684339496911 0.0
  outer loop
    vertex 67.15127848080587 108.27390209647426 0.0
    vertex 69.14858657966987 107.39727402407627 6.028810999999996
    vertex 67.15127848080587 108.27390209647426 6.028810999999996
  endloop
endfacet
facet normal -0.625200430013679 -0.7804642351259352 0.0
  outer loop
    vertex 70.85095001481083 106.03357495397351 6.028810999999996
    vertex 69.14858657966987 107.39727402407627 0.0
    vertex 70.85095001481083 106.03357495397351 0.0
  endloop
endfacet
facet normal -0.625200430013679 -0.7804642351259352 0.0
  outer loop
    vertex 69.14858657966987 107.39727402407627 0.0
    vertex 70.85095001481083 106.03357495397351 6.028810999999996
    vertex 69.14858657966987 107.39727402407627 6.028810999999996
  endloop
endfacet
facet normal -0.8058962500292076 -0.5920567829092586 0.0
  outer loop
    vertex 70.85095001481083 106.03357495397351 6.028810999999996
    vertex 72.14235553141246 104.27573872417426 0.0
    vertex 72.14235553141246 104.27573872417426 6.028810999999996
  endloop
endfacet
facet normal -0.8058962500292076 -0.5920567829092586 0.0
  outer loop
    vertex 72.14235553141246 104.27573872417426 0.0
    vertex 70.85095001481083 106.03357495397351 6.028810999999996
    vertex 70.85095001481083 106.03357495397351 0.0
  endloop
endfacet
facet normal -0.9316715724117675 -0.3633016393574148 0.0
  outer loop
    vertex 72.14235553141246 104.27573872417426 6.028810999999996
    vertex 72.93479597766691 102.24355896877759 0.0
    vertex 72.93479597766691 102.24355896877759 6.028810999999996
  endloop
endfacet
facet normal -0.9316715724117675 -0.3633016393574148 0.0
  outer loop
    vertex 72.93479597766691 102.24355896877759 0.0
    vertex 72.14235553141246 104.27573872417426 6.028810999999996
    vertex 72.14235553141246 104.27573872417426 0.0
  endloop
endfacet
facet normal -0.9939550167945381 -0.10978808946770745 0.0
  outer loop
    vertex 72.93479597766691 102.24355896877759 6.028810999999996
    vertex 73.15498976774659 100.25005745711248 0.0
    vertex 73.15498976774659 100.25005745711248 6.028810999999996
  endloop
endfacet
facet normal -0.9939550167945381 -0.10978808946770745 0.0
  outer loop
    vertex 73.15498976774659 100.25005745711248 0.0
    vertex 72.93479597766691 102.24355896877759 6.028810999999996
    vertex 72.93479597766691 102.24355896877759 0.0
  endloop
endfacet
facet normal 0.0 0.0 -1.0
  outer loop
    vertex 56.79676224775239 102.58072905080417 0.0
    vertex 56.48622400648176 100.25005745711248 0.0
    vertex 56.46694592749668 100.42458953444698 0.0
  endloop
endfacet
facet normal 0.0 0.0 -1.0
  outer loop
    vertex 59.03708939025313 106.28040058480913 0.0
    vertex 58.58812688711417 100.25005745711248 0.0
    vertex 57.67339032015039 104.57803714966818 0.0
  endloop
endfacet
facet normal 0.0 0.0 -1.0
  outer loop
    vertex 58.58812688711417 100.25005745711248 0.0
    vertex 59.03708939025313 106.28040058480913 0.0
    vertex 58.80049349328409 101.86314197933304 0.0
  endloop
endfacet
facet normal 0.0 0.0 -1.0
  outer loop
    vertex 58.80049349328409 101.86314197933304 0.0
    vertex 59.03708939025313 106.28040058480913 0.0
    vertex 59.42312087853573 103.36629745711247 0.0
  endloop
endfacet
facet normal 0.0 0.0 -1.0
  outer loop
    vertex 59.42312087853573 103.36629745711247 0.0
    vertex 59.03708939025313 106.28040058480913 0.0
    vertex 60.79492562005238 107.57180610141077 0.0
  endloop
endfacet
facet normal 0.0 0.0 -1.0
  outer loop
    vertex 59.42312087853573 103.36629745711247 0.0
    vertex 60.79492562005238 107.57180610141077 0.0
    vertex 60.41357801550464 104.657086328722 0.0
  endloop
endfacet
facet normal 0.0 0.0 -1.0
  outer loop
    vertex 60.41357801550464 104.657086328722 0.0
    vertex 60.79492562005238 107.57180610141077 0.0
    vertex 61.70436688711417 105.64754346569092 0.0
  endloop
endfacet
facet normal 0.0 0.0 -1.0
  outer loop
    vertex 61.70436688711417 105.64754346569092 0.0
    vertex 60.79492562005238 107.57180610141077 0.0
    vertex 62.82710537544906 108.3642465476652 0.0
  endloop
endfacet
facet normal 0.0 0.0 -1.0
  outer loop
    vertex 61.70436688711417 105.64754346569092 0.0
    vertex 62.82710537544906 108.3642465476652 0.0
    vertex 63.207522364893606 106.27017085094256 0.0
  endloop
endfacet
facet normal 0.0 0.0 -1.0
  outer loop
    vertex 63.207522364893606 106.27017085094256 0.0
    vertex 62.82710537544906 108.3642465476652 0.0
    vertex 64.99513896444869 108.60371841672996 0.0
  endloop
endfacet
facet normal 0.0 0.0 -1.0
  outer loop
    vertex 63.207522364893606 106.27017085094256 0.0
    vertex 64.99513896444869 108.60371841672996 0.0
    vertex 64.82060688711418 106.48253745711247 0.0
  endloop
endfacet
facet normal 0.0 0.0 -1.0
  outer loop
    vertex 64.82060688711418 106.48253745711247 0.0
    vertex 64.99513896444869 108.60371841672996 0.0
    vertex 66.43369140933473 106.27017085094256 0.0
  endloop
endfacet
facet normal 0.0 0.0 -1.0
  outer loop
    vertex 66.43369140933473 106.27017085094256 0.0
    vertex 64.99513896444869 108.60371841672996 0.0
    vertex 67.15127848080587 108.27390209647426 0.0
  endloop
endfacet
facet normal 0.0 0.0 -1.0
  outer loop
    vertex 66.43369140933473 106.27017085094256 0.0
    vertex 67.15127848080587 108.27390209647426 0.0
    vertex 67.93684688711417 105.64754346569092 0.0
  endloop
endfacet
facet normal 0.0 0.0 -1.0
  outer loop
    vertex 67.93684688711417 105.64754346569092 0.0
    vertex 67.15127848080587 108.27390209647426 0.0
    vertex 69.14858657966987 107.39727402407627 0.0
  endloop
endfacet
facet normal 0.0 0.0 -1.0
  outer loop
    vertex 67.93684688711417 105.64754346569092 0.0
    vertex 69.14858657966987 107.39727402407627 0.0
    vertex 69.22763575872371 104.65708632872202 0.0
  endloop
endfacet
facet normal 0.0 0.0 -1.0
  outer loop
    vertex 69.22763575872371 104.65708632872202 0.0
    vertex 69.14858657966987 107.39727402407627 0.0
    vertex 70.85095001481083 106.03357495397351 0.0
  endloop
endfacet
facet normal 0.0 0.0 -1.0
  outer loop
    vertex 69.22763575872371 104.65708632872202 0.0
    vertex 70.85095001481083 106.03357495397351 0.0
    vertex 70.2180928956926 103.36629745711247 0.0
  endloop
endfacet
facet normal 0.0 0.0 -1.0
  outer loop
    vertex 70.2180928956926 103.36629745711247 0.0
    vertex 70.85095001481083 106.03357495397351 0.0
    vertex 70.84072028094427 101.86314197933304 0.0
  endloop
endfacet
facet normal 0.0 0.0 -1.0
  outer loop
    vertex 70.84072028094427 101.86314197933304 0.0
    vertex 70.85095001481083 106.03357495397351 0.0
    vertex 71.05308688711418 100.25005745711248 0.0
  endloop
endfacet
facet normal 0.0 0.0 -1.0
  outer loop
    vertex 71.05308688711418 100.25005745711248 0.0
    vertex 70.85095001481083 106.03357495397351 0.0
    vertex 72.14235553141246 104.27573872417426 0.0
  endloop
endfacet
facet normal 0.0 0.0 -1.0
  outer loop
    vertex 89.0039469785208 97.24212412031429 0.0
    vertex 87.31039098786583 64.74097258375325 0.0
    vertex 83.85846473545179 100.25005745711248 0.0
  endloop
endfacet
facet normal 0.0 0.0 -1.0
  outer loop
    vertex 87.31039098786583 64.74097258375325 0.0
    vertex 89.0039469785208 97.24212412031429 0.0
    vertex 102.49082641516078 73.2880095290641 0.0
  endloop
endfacet
facet normal 0.0 0.0 -1.0
  outer loop
    vertex 40.57556895805915 97.24212412031429 0.0
    vertex 42.31039098786584 65.68984574291909 0.0
    vertex 27.353183169779484 74.31639783759867 0.0
  endloop
endfacet
facet normal 0.0 0.0 -1.0
  outer loop
    vertex 42.31039098786584 65.68984574291909 0.0
    vertex 40.57556895805915 97.24212412031429 0.0
    vertex 45.782749038776565 100.25005745711248 0.0
  endloop
endfacet
facet normal 0.0 0.0 -1.0
  outer loop
    vertex 42.31039098786584 65.68984574291909 0.0
    vertex 45.782749038776565 100.25005745711248 0.0
    vertex 42.31039098786584 29.94874845711242 0.0
  endloop
endfacet
facet normal 0.0 0.0 -1.0
  outer loop
    vertex 42.31039098786584 29.94874845711242 0.0
    vertex 45.782749038776565 100.25005745711248 0.0
    vertex 87.31039098786583 29.94874845711242 0.0
  endloop
endfacet
facet normal 0.0 0.0 -1.0
  outer loop
    vertex 87.31039098786583 29.94874845711242 0.0
    vertex 45.782749038776565 100.25005745711248 0.0
    vertex 56.48622400648176 100.25005745711248 0.0
  endloop
endfacet
facet normal 0.0 0.0 -1.0
  outer loop
    vertex 87.31039098786583 29.94874845711242 0.0
    vertex 56.48622400648176 100.25005745711248 0.0
    vertex 56.79676224775239 102.58072905080417 0.0
  endloop
endfacet
facet normal 0.0 0.0 -1.0
  outer loop
    vertex 87.31039098786583 29.94874845711242 0.0
    vertex 56.79676224775239 102.58072905080417 0.0
    vertex 58.58812688711417 100.25005745711248 0.0
  endloop
endfacet
facet normal 0.0 0.0 -1.0
  outer loop
    vertex 58.58812688711417 100.25005745711248 0.0
    vertex 56.79676224775239 102.58072905080417 0.0
    vertex 57.67339032015039 104.57803714966818 0.0
  endloop
endfacet
facet normal 0.0 0.0 -1.0
  outer loop
    vertex 87.31039098786583 29.94874845711242 0.0
    vertex 58.58812688711417 100.25005745711248 0.0
    vertex 71.05308688711418 100.25005745711248 0.0
  endloop
endfacet
facet normal 0.0 0.0 -1.0
  outer loop
    vertex 87.31039098786583 29.94874845711242 0.0
    vertex 71.05308688711418 100.25005745711248 0.0
    vertex 72.14235553141246 104.27573872417426 0.0
  endloop
endfacet
facet normal 0.0 0.0 -1.0
  outer loop
    vertex 87.31039098786583 29.94874845711242 0.0
    vertex 72.14235553141246 104.27573872417426 0.0
    vertex 73.15498976774659 100.25005745711248 0.0
  endloop
endfacet
facet normal 0.0 0.0 -1.0
  outer loop
    vertex 73.15498976774659 100.25005745711248 0.0
    vertex 72.14235553141246 104.27573872417426 0.0
    vertex 72.93479597766691 102.24355896877759 0.0
  endloop
endfacet
facet normal 0.0 0.0 -1.0
  outer loop
    vertex 87.31039098786583 29.94874845711242 0.0
    vertex 73.15498976774659 100.25005745711248 0.0
    vertex 83.85846473545179 100.25005745711248 0.0
  endloop
endfacet
facet normal 0.0 0.0 -1.0
  outer loop
    vertex 87.31039098786583 29.94874845711242 0.0
    vertex 83.85846473545179 100.25005745711248 0.0
    vertex 87.31039098786583 64.74097258375325 0.0
  endloop
endfacet
facet normal -0.9254938571199799 0.3782128365032262 -0.02040026316904463
  outer loop
    vertex 64.81854140453925 86.03631814706836 22.499999999999993
    vertex 70.68449026255439 100.16321415419138 18.287984511726677
    vertex 64.81854140453925 85.8507682206185 19.05997751528809
  endloop
endfacet
facet normal -0.9254938571199799 0.3782128365032262 -0.02040026316904463
  outer loop
    vertex 70.68449026255439 100.16321415419138 18.287984511726677
    vertex 64.81854140453925 86.03631814706836 22.499999999999993
    vertex 70.6440354019209 100.25005745711248 21.733331091504024
  endloop
endfacet
facet normal -0.9254938571199799 0.3782128365032262 -0.02040026316904463
  outer loop
    vertex 70.68449026255439 100.16321415419138 18.287984511726677
    vertex 70.6440354019209 100.25005745711248 21.733331091504024
    vertex 70.68449026255439 100.25005745711248 19.898025110562234
  endloop
endfacet
facet normal 0.9255879894426762 0.377983079699964 -0.02038787041343563
  outer loop
    vertex 58.95675219896118 100.16321415419138 18.28798451172668
    vertex 64.81854140453925 86.03631814706836 22.499999999999993
    vertex 64.81854140453925 85.8507682206185 19.05997751528809
  endloop
endfacet
facet normal 0.9255879894426762 0.377983079699964 -0.02038787041343563
  outer loop
    vertex 64.81854140453925 86.03631814706836 22.499999999999993
    vertex 58.95675219896118 100.16321415419138 18.28798451172668
    vertex 58.99717837230746 100.25005745711248 21.73333109150403
  endloop
endfacet
facet normal 0.9255879894426762 0.377983079699964 -0.02038787041343563
  outer loop
    vertex 58.99717837230746 100.25005745711248 21.73333109150403
    vertex 58.95675219896118 100.16321415419138 18.28798451172668
    vertex 58.95675219896118 100.25005745711248 19.898025110562237
  endloop
endfacet
facet normal -1.0 0.0 0.0
  outer loop
    vertex 70.68449026255439 100.25005745711248 18.385947110562235
    vertex 70.68449026255439 100.16321415419138 18.287984511726677
    vertex 70.68449026255439 100.25005745711248 19.898025110562234
  endloop
endfacet
facet normal 0.9874947630547193 -0.1574229746373528 0.008491171640677858
  outer loop
    vertex 58.95675219896118 100.25005745711248 19.898025110562237
    vertex 58.95675219896118 100.16321415419138 18.28798451172668
    vertex 58.97021826255439 100.25005745711248 18.331967110562235
  endloop
endfacet
facet normal -0.0019136057888655582 -0.5537795415756499 0.8326611300193782
  outer loop
    vertex 64.95622639320858 100.16321415419138 18.287984511726677
    vertex 58.97021826255439 100.25005745711248 18.331967110562235
    vertex 58.95675219896118 100.16321415419138 18.28798451172668
  endloop
endfacet
facet normal -0.0019136057888655582 -0.5537795415756499 0.8326611300193782
  outer loop
    vertex 58.97021826255439 100.25005745711248 18.331967110562235
    vertex 64.95622639320858 100.16321415419138 18.287984511726677
    vertex 64.95448842440311 100.25005745711248 18.359542951667564
  endloop
endfacet
facet normal 2.367335956389395e-16 0.0538602866946967 0.998548481305322
  outer loop
    vertex 64.81854140453925 85.8507682206185 19.05997751528809
    vertex 64.95622639320858 100.16321415419138 18.287984511726677
    vertex 58.95675219896118 100.16321415419138 18.28798451172668
  endloop
endfacet
facet normal 2.367335956389395e-16 0.0538602866946967 0.998548481305322
  outer loop
    vertex 64.95622639320858 100.16321415419138 18.287984511726677
    vertex 64.81854140453925 85.8507682206185 19.05997751528809
    vertex 70.68449026255439 100.16321415419138 18.287984511726677
  endloop
endfacet
facet normal -0.0016493244503612207 -0.6984805687264033 0.7156271199727534
  outer loop
    vertex 64.95622639320858 100.16321415419138 18.287984511726677
    vertex 70.68449026255439 100.25005745711248 18.385947110562235
    vertex 64.95448842440311 100.25005745711248 18.359542951667564
  endloop
endfacet
facet normal -0.0016493244503612207 -0.6984805687264033 0.7156271199727534
  outer loop
    vertex 70.68449026255439 100.25005745711248 18.385947110562235
    vertex 64.95622639320858 100.16321415419138 18.287984511726677
    vertex 70.68449026255439 100.16321415419138 18.287984511726677
  endloop
endfacet
facet normal 0.0 0.0 -1.0
  outer loop
    vertex 56.79676224775239 102.58072905080417 6.028810999999996
    vertex 56.48622400648176 100.25005745711248 6.028810999999996
    vertex 56.46694592749668 100.42458953444698 6.028810999999996
  endloop
endfacet
facet normal 0.0 0.0 -1.0
  outer loop
    vertex 56.48622400648176 100.25005745711248 6.028810999999996
    vertex 56.79676224775239 102.58072905080417 6.028810999999996
    vertex 58.58812688711417 100.25005745711248 6.028810999999996
  endloop
endfacet
facet normal 0.0 0.0 -1.0
  outer loop
    vertex 58.58812688711417 100.25005745711248 6.028810999999996
    vertex 56.79676224775239 102.58072905080417 6.028810999999996
    vertex 57.67339032015039 104.57803714966818 6.028810999999996
  endloop
endfacet
facet normal 0.0 0.0 -1.0
  outer loop
    vertex 58.58812688711417 100.25005745711248 6.028810999999996
    vertex 57.67339032015039 104.57803714966818 6.028810999999996
    vertex 59.03708939025313 106.28040058480913 6.028810999999996
  endloop
endfacet
facet normal 0.0 0.0 -1.0
  outer loop
    vertex 58.58812688711417 100.25005745711248 6.028810999999996
    vertex 59.03708939025313 106.28040058480913 6.028810999999996
    vertex 58.80049349328409 101.86314197933304 6.028810999999996
  endloop
endfacet
facet normal 0.0 0.0 -1.0
  outer loop
    vertex 58.80049349328409 101.86314197933304 6.028810999999996
    vertex 59.03708939025313 106.28040058480913 6.028810999999996
    vertex 59.42312087853573 103.36629745711247 6.028810999999996
  endloop
endfacet
facet normal 0.0 0.0 -1.0
  outer loop
    vertex 59.42312087853573 103.36629745711247 6.028810999999996
    vertex 59.03708939025313 106.28040058480913 6.028810999999996
    vertex 60.79492562005238 107.57180610141077 6.028810999999996
  endloop
endfacet
facet normal 0.0 0.0 -1.0
  outer loop
    vertex 59.42312087853573 103.36629745711247 6.028810999999996
    vertex 60.79492562005238 107.57180610141077 6.028810999999996
    vertex 60.41357801550464 104.657086328722 6.028810999999996
  endloop
endfacet
facet normal 0.0 0.0 -1.0
  outer loop
    vertex 60.41357801550464 104.657086328722 6.028810999999996
    vertex 60.79492562005238 107.57180610141077 6.028810999999996
    vertex 61.70436688711417 105.64754346569092 6.028810999999996
  endloop
endfacet
facet normal 0.0 0.0 -1.0
  outer loop
    vertex 61.70436688711417 105.64754346569092 6.028810999999996
    vertex 60.79492562005238 107.57180610141077 6.028810999999996
    vertex 62.82710537544906 108.3642465476652 6.028810999999996
  endloop
endfacet
facet normal 0.0 0.0 -1.0
  outer loop
    vertex 61.70436688711417 105.64754346569092 6.028810999999996
    vertex 62.82710537544906 108.3642465476652 6.028810999999996
    vertex 63.207522364893606 106.27017085094256 6.028810999999996
  endloop
endfacet
facet normal 0.0 0.0 -1.0
  outer loop
    vertex 63.207522364893606 106.27017085094256 6.028810999999996
    vertex 62.82710537544906 108.3642465476652 6.028810999999996
    vertex 64.99513896444869 108.60371841672996 6.028810999999996
  endloop
endfacet
facet normal 0.0 0.0 -1.0
  outer loop
    vertex 63.207522364893606 106.27017085094256 6.028810999999996
    vertex 64.99513896444869 108.60371841672996 6.028810999999996
    vertex 64.82060688711418 106.48253745711247 6.028810999999996
  endloop
endfacet
facet normal 0.0 0.0 -1.0
  outer loop
    vertex 64.82060688711418 106.48253745711247 6.028810999999996
    vertex 64.99513896444869 108.60371841672996 6.028810999999996
    vertex 66.43369140933473 106.27017085094256 6.028810999999996
  endloop
endfacet
facet normal 0.0 0.0 -1.0
  outer loop
    vertex 66.43369140933473 106.27017085094256 6.028810999999996
    vertex 64.99513896444869 108.60371841672996 6.028810999999996
    vertex 67.15127848080587 108.27390209647426 6.028810999999996
  endloop
endfacet
facet normal 0.0 0.0 -1.0
  outer loop
    vertex 66.43369140933473 106.27017085094256 6.028810999999996
    vertex 67.15127848080587 108.27390209647426 6.028810999999996
    vertex 67.93684688711417 105.64754346569092 6.028810999999996
  endloop
endfacet
facet normal 0.0 0.0 -1.0
  outer loop
    vertex 67.93684688711417 105.64754346569092 6.028810999999996
    vertex 67.15127848080587 108.27390209647426 6.028810999999996
    vertex 69.14858657966987 107.39727402407627 6.028810999999996
  endloop
endfacet
facet normal 0.0 0.0 -1.0
  outer loop
    vertex 67.93684688711417 105.64754346569092 6.028810999999996
    vertex 69.14858657966987 107.39727402407627 6.028810999999996
    vertex 69.22763575872371 104.65708632872202 6.028810999999996
  endloop
endfacet
facet normal 0.0 0.0 -1.0
  outer loop
    vertex 69.22763575872371 104.65708632872202 6.028810999999996
    vertex 69.14858657966987 107.39727402407627 6.028810999999996
    vertex 70.85095001481083 106.03357495397351 6.028810999999996
  endloop
endfacet
facet normal 0.0 0.0 -1.0
  outer loop
    vertex 69.22763575872371 104.65708632872202 6.028810999999996
    vertex 70.85095001481083 106.03357495397351 6.028810999999996
    vertex 70.2180928956926 103.36629745711247 6.028810999999996
  endloop
endfacet
facet normal 0.0 0.0 -1.0
  outer loop
    vertex 70.2180928956926 103.36629745711247 6.028810999999996
    vertex 70.85095001481083 106.03357495397351 6.028810999999996
    vertex 70.84072028094427 101.86314197933304 6.028810999999996
  endloop
endfacet
facet normal 0.0 0.0 -1.0
  outer loop
    vertex 70.84072028094427 101.86314197933304 6.028810999999996
    vertex 70.85095001481083 106.03357495397351 6.028810999999996
    vertex 71.05308688711418 100.25005745711248 6.028810999999996
  endloop
endfacet
facet normal 0.0 0.0 -1.0
  outer loop
    vertex 71.05308688711418 100.25005745711248 6.028810999999996
    vertex 70.85095001481083 106.03357495397351 6.028810999999996
    vertex 72.14235553141246 104.27573872417426 6.028810999999996
  endloop
endfacet
facet normal 0.0 0.0 -1.0
  outer loop
    vertex 71.05308688711418 100.25005745711248 6.028810999999996
    vertex 72.14235553141246 104.27573872417426 6.028810999999996
    vertex 73.15498976774659 100.25005745711248 6.028810999999996
  endloop
endfacet
facet normal 0.0 0.0 -1.0
  outer loop
    vertex 73.15498976774659 100.25005745711248 6.028810999999996
    vertex 72.14235553141246 104.27573872417426 6.028810999999996
    vertex 72.93479597766691 102.24355896877759 6.028810999999996
  endloop
endfacet
facet normal -0.0 1.0 -0.0
  outer loop
    vertex 53.57060688711418 100.25005745711248 19.485571585149863
    vertex 58.97021826255439 100.25005745711248 18.331967110562235
    vertex 48.91070431041686 100.25005745711248 15.909902576697315
  endloop
endfacet
facet normal -0.0 1.0 -0.0
  outer loop
    vertex 58.97021826255439 100.25005745711248 18.331967110562235
    vertex 53.57060688711418 100.25005745711248 19.485571585149863
    vertex 58.95675219896118 100.25005745711248 19.898025110562237
  endloop
endfacet
facet normal -0.0 1.0 -0.0
  outer loop
    vertex 58.95675219896118 100.25005745711248 19.898025110562237
    vertex 53.57060688711418 100.25005745711248 19.485571585149863
    vertex 58.99717837230746 100.25005745711248 21.73333109150403
  endloop
endfacet
facet normal -0.0 1.0 -0.0
  outer loop
    vertex 45.782749038776565 100.25005745711248 11.833471901583277
    vertex 56.48622400648176 100.25005745711248 0.0
    vertex 45.782749038776565 100.25005745711248 0.0
  endloop
endfacet
facet normal -0.0 1.0 -0.0
  outer loop
    vertex 56.48622400648176 100.25005745711248 0.0
    vertex 45.782749038776565 100.25005745711248 11.833471901583277
    vertex 56.48622400648176 100.25005745711248 6.028810999999996
  endloop
endfacet
facet normal -0.0 1.0 -0.0
  outer loop
    vertex 56.48622400648176 100.25005745711248 6.028810999999996
    vertex 45.782749038776565 100.25005745711248 11.833471901583277
    vertex 58.58812688711417 100.25005745711248 6.028810999999996
  endloop
endfacet
facet normal -0.0 1.0 -0.0
  outer loop
    vertex 58.58812688711417 100.25005745711248 6.028810999999996
    vertex 45.782749038776565 100.25005745711248 11.833471901583277
    vertex 71.05308688711418 100.25005745711248 6.028810999999996
  endloop
endfacet
facet normal -0.0 1.0 -0.0
  outer loop
    vertex 71.05308688711418 100.25005745711248 6.028810999999996
    vertex 45.782749038776565 100.25005745711248 11.833471901583277
    vertex 73.15498976774659 100.25005745711248 6.028810999999996
  endloop
endfacet
facet normal -0.0 1.0 -0.0
  outer loop
    vertex 73.15498976774659 100.25005745711248 6.028810999999996
    vertex 45.782749038776565 100.25005745711248 11.833471901583277
    vertex 83.85846473545179 100.25005745711248 11.833471901583273
  endloop
endfacet
facet normal -0.0 1.0 -0.0
  outer loop
    vertex 83.85846473545179 100.25005745711248 11.833471901583273
    vertex 45.782749038776565 100.25005745711248 11.833471901583277
    vertex 80.73050946381149 100.25005745711248 15.909902576697311
  endloop
endfacet
facet normal -0.0 1.0 -0.0
  outer loop
    vertex 80.73050946381149 100.25005745711248 15.909902576697311
    vertex 45.782749038776565 100.25005745711248 11.833471901583277
    vertex 48.91070431041686 100.25005745711248 15.909902576697315
  endloop
endfacet
facet normal -0.0 1.0 -0.0
  outer loop
    vertex 80.73050946381149 100.25005745711248 15.909902576697311
    vertex 48.91070431041686 100.25005745711248 15.909902576697315
    vertex 70.68449026255439 100.25005745711248 18.385947110562235
  endloop
endfacet
facet normal -0.0 1.0 -0.0
  outer loop
    vertex 80.73050946381149 100.25005745711248 15.909902576697311
    vertex 70.68449026255439 100.25005745711248 18.385947110562235
    vertex 76.07060688711418 100.25005745711248 19.485571585149856
  endloop
endfacet
facet normal -0.0 1.0 -0.0
  outer loop
    vertex 70.68449026255439 100.25005745711248 18.385947110562235
    vertex 48.91070431041686 100.25005745711248 15.909902576697315
    vertex 58.97021826255439 100.25005745711248 18.331967110562235
  endloop
endfacet
facet normal -0.0 1.0 -0.0
  outer loop
    vertex 70.68449026255439 100.25005745711248 18.385947110562235
    vertex 58.97021826255439 100.25005745711248 18.331967110562235
    vertex 64.95448842440311 100.25005745711248 18.359542951667564
  endloop
endfacet
facet normal -0.0 1.0 -0.0
  outer loop
    vertex 76.07060688711418 100.25005745711248 19.485571585149856
    vertex 70.68449026255439 100.25005745711248 18.385947110562235
    vertex 70.68449026255439 100.25005745711248 19.898025110562234
  endloop
endfacet
facet normal -0.0 1.0 -0.0
  outer loop
    vertex 76.07060688711418 100.25005745711248 19.485571585149856
    vertex 70.68449026255439 100.25005745711248 19.898025110562234
    vertex 70.6440354019209 100.25005745711248 21.733331091504024
  endloop
endfacet
facet normal -0.0 1.0 -0.0
  outer loop
    vertex 73.15498976774659 100.25005745711248 6.028810999999996
    vertex 83.85846473545179 100.25005745711248 0.0
    vertex 73.15498976774659 100.25005745711248 0.0
  endloop
endfacet
facet normal -0.0 1.0 -0.0
  outer loop
    vertex 83.85846473545179 100.25005745711248 0.0
    vertex 73.15498976774659 100.25005745711248 6.028810999999996
    vertex 83.85846473545179 100.25005745711248 11.833471901583273
  endloop
endfacet
facet normal -0.0 1.0 -0.0
  outer loop
    vertex 58.58812688711417 100.25005745711248 6.028810999999996
    vertex 71.05308688711418 100.25005745711248 0.0
    vertex 58.58812688711417 100.25005745711248 0.0
  endloop
endfacet
facet normal -0.0 1.0 -0.0
  outer loop
    vertex 71.05308688711418 100.25005745711248 0.0
    vertex 58.58812688711417 100.25005745711248 6.028810999999996
    vertex 71.05308688711418 100.25005745711248 6.028810999999996
  endloop
endfacet
endsolid t-shirti BLANK 3
