solid csg.js
facet normal 0 -1 0
outer loop
vertex -11 6 0
vertex -11 6 6
vertex -13 6 6
endloop
endfacet
facet normal 0 -1 0
outer loop
vertex -11 6 0
vertex -13 6 6
vertex -13 6 0
endloop
endfacet
facet normal 0 -1 0
outer loop
vertex -3 6 0
vertex -3 6 6
vertex -5 6 6
endloop
endfacet
facet normal 0 -1 0
outer loop
vertex -3 6 0
vertex -5 6 6
vertex -5 6 0
endloop
endfacet
facet normal 0 -1 0
outer loop
vertex 5 6 0
vertex 5 6 6
vertex 3 6 6
endloop
endfacet
facet normal 0 -1 0
outer loop
vertex 5 6 0
vertex 3 6 6
vertex 3 6 0
endloop
endfacet
facet normal 0 -1 0
outer loop
vertex 13 6 0
vertex 13 6 6
vertex 11 6 6
endloop
endfacet
facet normal 0 -1 0
outer loop
vertex 13 6 0
vertex 11 6 6
vertex 11 6 0
endloop
endfacet
facet normal 0 1 0
outer loop
vertex -11 8 6
vertex -11 8 0
vertex -13 8 0
endloop
endfacet
facet normal 0 1 0
outer loop
vertex -11 8 6
vertex -13 8 0
vertex -13 8 6
endloop
endfacet
facet normal 0 1 0
outer loop
vertex -3 8 6
vertex -3 8 0
vertex -5 8 0
endloop
endfacet
facet normal 0 1 0
outer loop
vertex -3 8 6
vertex -5 8 0
vertex -5 8 6
endloop
endfacet
facet normal 0 1 0
outer loop
vertex 5 8 6
vertex 5 8 0
vertex 3 8 0
endloop
endfacet
facet normal 0 1 0
outer loop
vertex 5 8 6
vertex 3 8 0
vertex 3 8 6
endloop
endfacet
facet normal 0 1 0
outer loop
vertex 13 8 6
vertex 13 8 0
vertex 11 8 0
endloop
endfacet
facet normal 0 1 0
outer loop
vertex 13 8 6
vertex 11 8 0
vertex 11 8 6
endloop
endfacet
facet normal 0 0 -1
outer loop
vertex -13 20 0
vertex -13 18 0
vertex -51 18 0
endloop
endfacet
facet normal 0 0 -1
outer loop
vertex -13 20 0
vertex -51 18 0
vertex -51 20 0
endloop
endfacet
facet normal 0 0 -1
outer loop
vertex -5 20 0
vertex -5 18 0
vertex -11 18 0
endloop
endfacet
facet normal 0 0 -1
outer loop
vertex -5 20 0
vertex -11 18 0
vertex -11 20 0
endloop
endfacet
facet normal 0 0 -1
outer loop
vertex 3 20 0
vertex 3 18 0
vertex -3 18 0
endloop
endfacet
facet normal 0 0 -1
outer loop
vertex 3 20 0
vertex -3 18 0
vertex -3 20 0
endloop
endfacet
facet normal 0 0 -1
outer loop
vertex 11 20 0
vertex 11 18 0
vertex 5 18 0
endloop
endfacet
facet normal 0 0 -1
outer loop
vertex 11 20 0
vertex 5 18 0
vertex 5 20 0
endloop
endfacet
facet normal 0 0 -1
outer loop
vertex 51 20 0
vertex 51 18 0
vertex 13 18 0
endloop
endfacet
facet normal 0 0 -1
outer loop
vertex 51 20 0
vertex 13 18 0
vertex 13 20 0
endloop
endfacet
facet normal 0 0 -1
outer loop
vertex -13 18 0
vertex -13 8 0
vertex -15 8 0
endloop
endfacet
facet normal 0 0 -1
outer loop
vertex -13 18 0
vertex -15 8 0
vertex -15 18 0
endloop
endfacet
facet normal 0 0 -1
outer loop
vertex -9 18 0
vertex -9 8 0
vertex -11 8 0
endloop
endfacet
facet normal 0 0 -1
outer loop
vertex -9 18 0
vertex -11 8 0
vertex -11 18 0
endloop
endfacet
facet normal 0 0 -1
outer loop
vertex -5 18 0
vertex -5 8 0
vertex -7 8 0
endloop
endfacet
facet normal 0 0 -1
outer loop
vertex -5 18 0
vertex -7 8 0
vertex -7 18 0
endloop
endfacet
facet normal 0 0 -1
outer loop
vertex -1 18 0
vertex -1 8 0
vertex -3 8 0
endloop
endfacet
facet normal 0 0 -1
outer loop
vertex -1 18 0
vertex -3 8 0
vertex -3 18 0
endloop
endfacet
facet normal 0 0 -1
outer loop
vertex 3 18 0
vertex 3 8 0
vertex 1 8 0
endloop
endfacet
facet normal 0 0 -1
outer loop
vertex 3 18 0
vertex 1 8 0
vertex 1 18 0
endloop
endfacet
facet normal 0 0 -1
outer loop
vertex 7 18 0
vertex 7 8 0
vertex 5 8 0
endloop
endfacet
facet normal 0 0 -1
outer loop
vertex 7 18 0
vertex 5 8 0
vertex 5 18 0
endloop
endfacet
facet normal 0 0 -1
outer loop
vertex 11 18 0
vertex 11 8 0
vertex 9 8 0
endloop
endfacet
facet normal 0 0 -1
outer loop
vertex 11 18 0
vertex 9 8 0
vertex 9 18 0
endloop
endfacet
facet normal 0 0 -1
outer loop
vertex 15 18 0
vertex 15 8 0
vertex 13 8 0
endloop
endfacet
facet normal 0 0 -1
outer loop
vertex 15 18 0
vertex 13 8 0
vertex 13 18 0
endloop
endfacet
facet normal 0 0 -1
outer loop
vertex -9 8 0
vertex -9 6 0
vertex -15 6 0
endloop
endfacet
facet normal 0 0 -1
outer loop
vertex -9 8 0
vertex -15 6 0
vertex -15 8 0
endloop
endfacet
facet normal 0 0 -1
outer loop
vertex -1 8 0
vertex -1 6 0
vertex -7 6 0
endloop
endfacet
facet normal 0 0 -1
outer loop
vertex -1 8 0
vertex -7 6 0
vertex -7 8 0
endloop
endfacet
facet normal 0 0 -1
outer loop
vertex 7 8 0
vertex 7 6 0
vertex 1 6 0
endloop
endfacet
facet normal 0 0 -1
outer loop
vertex 7 8 0
vertex 1 6 0
vertex 1 8 0
endloop
endfacet
facet normal 0 0 -1
outer loop
vertex 15 8 0
vertex 15 6 0
vertex 9 6 0
endloop
endfacet
facet normal 0 0 -1
outer loop
vertex 15 8 0
vertex 9 6 0
vertex 9 8 0
endloop
endfacet
facet normal 0 0 -1
outer loop
vertex -13 6 0
vertex -13 -6 0
vertex -15 -6 0
endloop
endfacet
facet normal 0 0 -1
outer loop
vertex -13 6 0
vertex -15 -6 0
vertex -15 6 0
endloop
endfacet
facet normal 0 0 -1
outer loop
vertex -9 6 0
vertex -9 -6 0
vertex -11 -6 0
endloop
endfacet
facet normal 0 0 -1
outer loop
vertex -9 6 0
vertex -11 -6 0
vertex -11 6 0
endloop
endfacet
facet normal 0 0 -1
outer loop
vertex -5 6 0
vertex -5 -6 0
vertex -7 -6 0
endloop
endfacet
facet normal 0 0 -1
outer loop
vertex -5 6 0
vertex -7 -6 0
vertex -7 6 0
endloop
endfacet
facet normal 0 0 -1
outer loop
vertex -1 6 0
vertex -1 -6 0
vertex -3 -6 0
endloop
endfacet
facet normal 0 0 -1
outer loop
vertex -1 6 0
vertex -3 -6 0
vertex -3 6 0
endloop
endfacet
facet normal 0 0 -1
outer loop
vertex 3 6 0
vertex 3 -6 0
vertex 1 -6 0
endloop
endfacet
facet normal 0 0 -1
outer loop
vertex 3 6 0
vertex 1 -6 0
vertex 1 6 0
endloop
endfacet
facet normal 0 0 -1
outer loop
vertex 7 6 0
vertex 7 -6 0
vertex 5 -6 0
endloop
endfacet
facet normal 0 0 -1
outer loop
vertex 7 6 0
vertex 5 -6 0
vertex 5 6 0
endloop
endfacet
facet normal 0 0 -1
outer loop
vertex 11 6 0
vertex 11 -6 0
vertex 9 -6 0
endloop
endfacet
facet normal 0 0 -1
outer loop
vertex 11 6 0
vertex 9 -6 0
vertex 9 6 0
endloop
endfacet
facet normal 0 0 -1
outer loop
vertex 15 6 0
vertex 15 -6 0
vertex 13 -6 0
endloop
endfacet
facet normal 0 0 -1
outer loop
vertex 15 6 0
vertex 13 -6 0
vertex 13 6 0
endloop
endfacet
facet normal 0 0 -1
outer loop
vertex -9 -6 0
vertex -9 -8 0
vertex -15 -8 0
endloop
endfacet
facet normal 0 0 -1
outer loop
vertex -9 -6 0
vertex -15 -8 0
vertex -15 -6 0
endloop
endfacet
facet normal 0 0 -1
outer loop
vertex -1 -6 0
vertex -1 -8 0
vertex -7 -8 0
endloop
endfacet
facet normal 0 0 -1
outer loop
vertex -1 -6 0
vertex -7 -8 0
vertex -7 -6 0
endloop
endfacet
facet normal 0 0 -1
outer loop
vertex 7 -6 0
vertex 7 -8 0
vertex 1 -8 0
endloop
endfacet
facet normal 0 0 -1
outer loop
vertex 7 -6 0
vertex 1 -8 0
vertex 1 -6 0
endloop
endfacet
facet normal 0 0 -1
outer loop
vertex 15 -6 0
vertex 15 -8 0
vertex 9 -8 0
endloop
endfacet
facet normal 0 0 -1
outer loop
vertex 15 -6 0
vertex 9 -8 0
vertex 9 -6 0
endloop
endfacet
facet normal 0 0 -1
outer loop
vertex -17 18 0
vertex -17 -18 0
vertex -51 -18 0
endloop
endfacet
facet normal 0 0 -1
outer loop
vertex -17 18 0
vertex -51 -18 0
vertex -51 18 0
endloop
endfacet
facet normal 0 0 -1
outer loop
vertex -13 -8 0
vertex -13 -18 0
vertex -15 -18 0
endloop
endfacet
facet normal 0 0 -1
outer loop
vertex -13 -8 0
vertex -15 -18 0
vertex -15 -8 0
endloop
endfacet
facet normal 0 0 -1
outer loop
vertex -9 -8 0
vertex -9 -18 0
vertex -11 -18 0
endloop
endfacet
facet normal 0 0 -1
outer loop
vertex -9 -8 0
vertex -11 -18 0
vertex -11 -8 0
endloop
endfacet
facet normal 0 0 -1
outer loop
vertex -5 -8 0
vertex -5 -18 0
vertex -7 -18 0
endloop
endfacet
facet normal 0 0 -1
outer loop
vertex -5 -8 0
vertex -7 -18 0
vertex -7 -8 0
endloop
endfacet
facet normal 0 0 -1
outer loop
vertex -1 -8 0
vertex -1 -18 0
vertex -3 -18 0
endloop
endfacet
facet normal 0 0 -1
outer loop
vertex -1 -8 0
vertex -3 -18 0
vertex -3 -8 0
endloop
endfacet
facet normal 0 0 -1
outer loop
vertex 3 -8 0
vertex 3 -18 0
vertex 1 -18 0
endloop
endfacet
facet normal 0 0 -1
outer loop
vertex 3 -8 0
vertex 1 -18 0
vertex 1 -8 0
endloop
endfacet
facet normal 0 0 -1
outer loop
vertex 7 -8 0
vertex 7 -18 0
vertex 5 -18 0
endloop
endfacet
facet normal 0 0 -1
outer loop
vertex 7 -8 0
vertex 5 -18 0
vertex 5 -8 0
endloop
endfacet
facet normal 0 0 -1
outer loop
vertex 11 -8 0
vertex 11 -18 0
vertex 9 -18 0
endloop
endfacet
facet normal 0 0 -1
outer loop
vertex 11 -8 0
vertex 9 -18 0
vertex 9 -8 0
endloop
endfacet
facet normal 0 0 -1
outer loop
vertex 15 -8 0
vertex 15 -18 0
vertex 13 -18 0
endloop
endfacet
facet normal 0 0 -1
outer loop
vertex 15 -8 0
vertex 13 -18 0
vertex 13 -8 0
endloop
endfacet
facet normal 0 0 -1
outer loop
vertex 51 18 0
vertex 51 -18 0
vertex 17 -18 0
endloop
endfacet
facet normal 0 0 -1
outer loop
vertex 51 18 0
vertex 17 -18 0
vertex 17 18 0
endloop
endfacet
facet normal 0 0 -1
outer loop
vertex -13 -18 0
vertex -13 -20 0
vertex -51 -20 0
endloop
endfacet
facet normal 0 0 -1
outer loop
vertex -13 -18 0
vertex -51 -20 0
vertex -51 -18 0
endloop
endfacet
facet normal 0 0 -1
outer loop
vertex -5 -18 0
vertex -5 -20 0
vertex -11 -20 0
endloop
endfacet
facet normal 0 0 -1
outer loop
vertex -5 -18 0
vertex -11 -20 0
vertex -11 -18 0
endloop
endfacet
facet normal 0 0 -1
outer loop
vertex 3 -18 0
vertex 3 -20 0
vertex -3 -20 0
endloop
endfacet
facet normal 0 0 -1
outer loop
vertex 3 -18 0
vertex -3 -20 0
vertex -3 -18 0
endloop
endfacet
facet normal 0 0 -1
outer loop
vertex 11 -18 0
vertex 11 -20 0
vertex 5 -20 0
endloop
endfacet
facet normal 0 0 -1
outer loop
vertex 11 -18 0
vertex 5 -20 0
vertex 5 -18 0
endloop
endfacet
facet normal 0 0 -1
outer loop
vertex 51 -18 0
vertex 51 -20 0
vertex 13 -20 0
endloop
endfacet
facet normal 0 0 -1
outer loop
vertex 51 -18 0
vertex 13 -20 0
vertex 13 -18 0
endloop
endfacet
facet normal 0 0 1
outer loop
vertex -13 -20 6
vertex -13 -18 6
vertex -51 -18 6
endloop
endfacet
facet normal 0 0 1
outer loop
vertex -13 -20 6
vertex -51 -18 6
vertex -51 -20 6
endloop
endfacet
facet normal 0 0 1
outer loop
vertex -5 -20 6
vertex -5 -18 6
vertex -11 -18 6
endloop
endfacet
facet normal 0 0 1
outer loop
vertex -5 -20 6
vertex -11 -18 6
vertex -11 -20 6
endloop
endfacet
facet normal 0 0 1
outer loop
vertex 3 -20 6
vertex 3 -18 6
vertex -3 -18 6
endloop
endfacet
facet normal 0 0 1
outer loop
vertex 3 -20 6
vertex -3 -18 6
vertex -3 -20 6
endloop
endfacet
facet normal 0 0 1
outer loop
vertex 11 -20 6
vertex 11 -18 6
vertex 5 -18 6
endloop
endfacet
facet normal 0 0 1
outer loop
vertex 11 -20 6
vertex 5 -18 6
vertex 5 -20 6
endloop
endfacet
facet normal 0 0 1
outer loop
vertex 51 -20 6
vertex 51 -18 6
vertex 13 -18 6
endloop
endfacet
facet normal 0 0 1
outer loop
vertex 51 -20 6
vertex 13 -18 6
vertex 13 -20 6
endloop
endfacet
facet normal 0 0 1
outer loop
vertex -13 -18 6
vertex -13 -8 6
vertex -15 -8 6
endloop
endfacet
facet normal 0 0 1
outer loop
vertex -13 -18 6
vertex -15 -8 6
vertex -15 -18 6
endloop
endfacet
facet normal 0 0 1
outer loop
vertex -9 -18 6
vertex -9 -8 6
vertex -11 -8 6
endloop
endfacet
facet normal 0 0 1
outer loop
vertex -9 -18 6
vertex -11 -8 6
vertex -11 -18 6
endloop
endfacet
facet normal 0 0 1
outer loop
vertex -5 -18 6
vertex -5 -8 6
vertex -7 -8 6
endloop
endfacet
facet normal 0 0 1
outer loop
vertex -5 -18 6
vertex -7 -8 6
vertex -7 -18 6
endloop
endfacet
facet normal 0 0 1
outer loop
vertex -1 -18 6
vertex -1 -8 6
vertex -3 -8 6
endloop
endfacet
facet normal 0 0 1
outer loop
vertex -1 -18 6
vertex -3 -8 6
vertex -3 -18 6
endloop
endfacet
facet normal 0 0 1
outer loop
vertex 3 -18 6
vertex 3 -8 6
vertex 1 -8 6
endloop
endfacet
facet normal 0 0 1
outer loop
vertex 3 -18 6
vertex 1 -8 6
vertex 1 -18 6
endloop
endfacet
facet normal 0 0 1
outer loop
vertex 7 -18 6
vertex 7 -8 6
vertex 5 -8 6
endloop
endfacet
facet normal 0 0 1
outer loop
vertex 7 -18 6
vertex 5 -8 6
vertex 5 -18 6
endloop
endfacet
facet normal 0 0 1
outer loop
vertex 11 -18 6
vertex 11 -8 6
vertex 9 -8 6
endloop
endfacet
facet normal 0 0 1
outer loop
vertex 11 -18 6
vertex 9 -8 6
vertex 9 -18 6
endloop
endfacet
facet normal 0 0 1
outer loop
vertex 15 -18 6
vertex 15 -8 6
vertex 13 -8 6
endloop
endfacet
facet normal 0 0 1
outer loop
vertex 15 -18 6
vertex 13 -8 6
vertex 13 -18 6
endloop
endfacet
facet normal 0 0 1
outer loop
vertex -9 -8 6
vertex -9 -6 6
vertex -15 -6 6
endloop
endfacet
facet normal 0 0 1
outer loop
vertex -9 -8 6
vertex -15 -6 6
vertex -15 -8 6
endloop
endfacet
facet normal 0 0 1
outer loop
vertex -1 -8 6
vertex -1 -6 6
vertex -7 -6 6
endloop
endfacet
facet normal 0 0 1
outer loop
vertex -1 -8 6
vertex -7 -6 6
vertex -7 -8 6
endloop
endfacet
facet normal 0 0 1
outer loop
vertex 7 -8 6
vertex 7 -6 6
vertex 1 -6 6
endloop
endfacet
facet normal 0 0 1
outer loop
vertex 7 -8 6
vertex 1 -6 6
vertex 1 -8 6
endloop
endfacet
facet normal 0 0 1
outer loop
vertex 15 -8 6
vertex 15 -6 6
vertex 9 -6 6
endloop
endfacet
facet normal 0 0 1
outer loop
vertex 15 -8 6
vertex 9 -6 6
vertex 9 -8 6
endloop
endfacet
facet normal 0 0 1
outer loop
vertex -13 -6 6
vertex -13 6 6
vertex -15 6 6
endloop
endfacet
facet normal 0 0 1
outer loop
vertex -13 -6 6
vertex -15 6 6
vertex -15 -6 6
endloop
endfacet
facet normal 0 0 1
outer loop
vertex -9 -6 6
vertex -9 6 6
vertex -11 6 6
endloop
endfacet
facet normal 0 0 1
outer loop
vertex -9 -6 6
vertex -11 6 6
vertex -11 -6 6
endloop
endfacet
facet normal 0 0 1
outer loop
vertex -5 -6 6
vertex -5 6 6
vertex -7 6 6
endloop
endfacet
facet normal 0 0 1
outer loop
vertex -5 -6 6
vertex -7 6 6
vertex -7 -6 6
endloop
endfacet
facet normal 0 0 1
outer loop
vertex -1 -6 6
vertex -1 6 6
vertex -3 6 6
endloop
endfacet
facet normal 0 0 1
outer loop
vertex -1 -6 6
vertex -3 6 6
vertex -3 -6 6
endloop
endfacet
facet normal 0 0 1
outer loop
vertex 3 -6 6
vertex 3 6 6
vertex 1 6 6
endloop
endfacet
facet normal 0 0 1
outer loop
vertex 3 -6 6
vertex 1 6 6
vertex 1 -6 6
endloop
endfacet
facet normal 0 0 1
outer loop
vertex 7 -6 6
vertex 7 6 6
vertex 5 6 6
endloop
endfacet
facet normal 0 0 1
outer loop
vertex 7 -6 6
vertex 5 6 6
vertex 5 -6 6
endloop
endfacet
facet normal 0 0 1
outer loop
vertex 11 -6 6
vertex 11 6 6
vertex 9 6 6
endloop
endfacet
facet normal 0 0 1
outer loop
vertex 11 -6 6
vertex 9 6 6
vertex 9 -6 6
endloop
endfacet
facet normal 0 0 1
outer loop
vertex 15 -6 6
vertex 15 6 6
vertex 13 6 6
endloop
endfacet
facet normal 0 0 1
outer loop
vertex 15 -6 6
vertex 13 6 6
vertex 13 -6 6
endloop
endfacet
facet normal 0 0 1
outer loop
vertex -9 6 6
vertex -9 8 6
vertex -15 8 6
endloop
endfacet
facet normal 0 0 1
outer loop
vertex -9 6 6
vertex -15 8 6
vertex -15 6 6
endloop
endfacet
facet normal 0 0 1
outer loop
vertex -1 6 6
vertex -1 8 6
vertex -7 8 6
endloop
endfacet
facet normal 0 0 1
outer loop
vertex -1 6 6
vertex -7 8 6
vertex -7 6 6
endloop
endfacet
facet normal 0 0 1
outer loop
vertex 7 6 6
vertex 7 8 6
vertex 1 8 6
endloop
endfacet
facet normal 0 0 1
outer loop
vertex 7 6 6
vertex 1 8 6
vertex 1 6 6
endloop
endfacet
facet normal 0 0 1
outer loop
vertex 15 6 6
vertex 15 8 6
vertex 9 8 6
endloop
endfacet
facet normal 0 0 1
outer loop
vertex 15 6 6
vertex 9 8 6
vertex 9 6 6
endloop
endfacet
facet normal 0 0 1
outer loop
vertex -17 -18 6
vertex -17 18 6
vertex -51 18 6
endloop
endfacet
facet normal 0 0 1
outer loop
vertex -17 -18 6
vertex -51 18 6
vertex -51 -18 6
endloop
endfacet
facet normal 0 0 1
outer loop
vertex -13 8 6
vertex -13 18 6
vertex -15 18 6
endloop
endfacet
facet normal 0 0 1
outer loop
vertex -13 8 6
vertex -15 18 6
vertex -15 8 6
endloop
endfacet
facet normal 0 0 1
outer loop
vertex -9 8 6
vertex -9 18 6
vertex -11 18 6
endloop
endfacet
facet normal 0 0 1
outer loop
vertex -9 8 6
vertex -11 18 6
vertex -11 8 6
endloop
endfacet
facet normal 0 0 1
outer loop
vertex -5 8 6
vertex -5 18 6
vertex -7 18 6
endloop
endfacet
facet normal 0 0 1
outer loop
vertex -5 8 6
vertex -7 18 6
vertex -7 8 6
endloop
endfacet
facet normal 0 0 1
outer loop
vertex -1 8 6
vertex -1 18 6
vertex -3 18 6
endloop
endfacet
facet normal 0 0 1
outer loop
vertex -1 8 6
vertex -3 18 6
vertex -3 8 6
endloop
endfacet
facet normal 0 0 1
outer loop
vertex 3 8 6
vertex 3 18 6
vertex 1 18 6
endloop
endfacet
facet normal 0 0 1
outer loop
vertex 3 8 6
vertex 1 18 6
vertex 1 8 6
endloop
endfacet
facet normal 0 0 1
outer loop
vertex 7 8 6
vertex 7 18 6
vertex 5 18 6
endloop
endfacet
facet normal 0 0 1
outer loop
vertex 7 8 6
vertex 5 18 6
vertex 5 8 6
endloop
endfacet
facet normal 0 0 1
outer loop
vertex 11 8 6
vertex 11 18 6
vertex 9 18 6
endloop
endfacet
facet normal 0 0 1
outer loop
vertex 11 8 6
vertex 9 18 6
vertex 9 8 6
endloop
endfacet
facet normal 0 0 1
outer loop
vertex 15 8 6
vertex 15 18 6
vertex 13 18 6
endloop
endfacet
facet normal 0 0 1
outer loop
vertex 15 8 6
vertex 13 18 6
vertex 13 8 6
endloop
endfacet
facet normal 0 0 1
outer loop
vertex 51 -18 6
vertex 51 18 6
vertex 17 18 6
endloop
endfacet
facet normal 0 0 1
outer loop
vertex 51 -18 6
vertex 17 18 6
vertex 17 -18 6
endloop
endfacet
facet normal 0 0 1
outer loop
vertex -13 18 6
vertex -13 20 6
vertex -51 20 6
endloop
endfacet
facet normal 0 0 1
outer loop
vertex -13 18 6
vertex -51 20 6
vertex -51 18 6
endloop
endfacet
facet normal 0 0 1
outer loop
vertex -5 18 6
vertex -5 20 6
vertex -11 20 6
endloop
endfacet
facet normal 0 0 1
outer loop
vertex -5 18 6
vertex -11 20 6
vertex -11 18 6
endloop
endfacet
facet normal 0 0 1
outer loop
vertex 3 18 6
vertex 3 20 6
vertex -3 20 6
endloop
endfacet
facet normal 0 0 1
outer loop
vertex 3 18 6
vertex -3 20 6
vertex -3 18 6
endloop
endfacet
facet normal 0 0 1
outer loop
vertex 11 18 6
vertex 11 20 6
vertex 5 20 6
endloop
endfacet
facet normal 0 0 1
outer loop
vertex 11 18 6
vertex 5 20 6
vertex 5 18 6
endloop
endfacet
facet normal 0 0 1
outer loop
vertex 51 18 6
vertex 51 20 6
vertex 13 20 6
endloop
endfacet
facet normal 0 0 1
outer loop
vertex 51 18 6
vertex 13 20 6
vertex 13 18 6
endloop
endfacet
facet normal 0 -1 0
outer loop
vertex -11 -8 0
vertex -11 -8 6
vertex -13 -8 6
endloop
endfacet
facet normal 0 -1 0
outer loop
vertex -11 -8 0
vertex -13 -8 6
vertex -13 -8 0
endloop
endfacet
facet normal 0 -1 0
outer loop
vertex -3 -8 0
vertex -3 -8 6
vertex -5 -8 6
endloop
endfacet
facet normal 0 -1 0
outer loop
vertex -3 -8 0
vertex -5 -8 6
vertex -5 -8 0
endloop
endfacet
facet normal 0 -1 0
outer loop
vertex 5 -8 0
vertex 5 -8 6
vertex 3 -8 6
endloop
endfacet
facet normal 0 -1 0
outer loop
vertex 5 -8 0
vertex 3 -8 6
vertex 3 -8 0
endloop
endfacet
facet normal 0 -1 0
outer loop
vertex 13 -8 0
vertex 13 -8 6
vertex 11 -8 6
endloop
endfacet
facet normal 0 -1 0
outer loop
vertex 13 -8 0
vertex 11 -8 6
vertex 11 -8 0
endloop
endfacet
facet normal 0 1 0
outer loop
vertex -11 -6 6
vertex -11 -6 0
vertex -13 -6 0
endloop
endfacet
facet normal 0 1 0
outer loop
vertex -11 -6 6
vertex -13 -6 0
vertex -13 -6 6
endloop
endfacet
facet normal 0 1 0
outer loop
vertex -3 -6 6
vertex -3 -6 0
vertex -5 -6 0
endloop
endfacet
facet normal 0 1 0
outer loop
vertex -3 -6 6
vertex -5 -6 0
vertex -5 -6 6
endloop
endfacet
facet normal 0 1 0
outer loop
vertex 5 -6 6
vertex 5 -6 0
vertex 3 -6 0
endloop
endfacet
facet normal 0 1 0
outer loop
vertex 5 -6 6
vertex 3 -6 0
vertex 3 -6 6
endloop
endfacet
facet normal 0 1 0
outer loop
vertex 13 -6 6
vertex 13 -6 0
vertex 11 -6 0
endloop
endfacet
facet normal 0 1 0
outer loop
vertex 13 -6 6
vertex 11 -6 0
vertex 11 -6 6
endloop
endfacet
facet normal 0 -1 0
outer loop
vertex -15 18 0
vertex -15 18 6
vertex -17 18 6
endloop
endfacet
facet normal 0 -1 0
outer loop
vertex -15 18 0
vertex -17 18 6
vertex -17 18 0
endloop
endfacet
facet normal 0 -1 0
outer loop
vertex -7 18 0
vertex -7 18 6
vertex -9 18 6
endloop
endfacet
facet normal 0 -1 0
outer loop
vertex -7 18 0
vertex -9 18 6
vertex -9 18 0
endloop
endfacet
facet normal 0 -1 0
outer loop
vertex 1 18 0
vertex 1 18 6
vertex -1 18 6
endloop
endfacet
facet normal 0 -1 0
outer loop
vertex 1 18 0
vertex -1 18 6
vertex -1 18 0
endloop
endfacet
facet normal 0 -1 0
outer loop
vertex 9 18 0
vertex 9 18 6
vertex 7 18 6
endloop
endfacet
facet normal 0 -1 0
outer loop
vertex 9 18 0
vertex 7 18 6
vertex 7 18 0
endloop
endfacet
facet normal 0 -1 0
outer loop
vertex 17 18 0
vertex 17 18 6
vertex 15 18 6
endloop
endfacet
facet normal 0 -1 0
outer loop
vertex 17 18 0
vertex 15 18 6
vertex 15 18 0
endloop
endfacet
facet normal 0 1 0
outer loop
vertex -13 20 6
vertex -13 20 0
vertex -51 20 0
endloop
endfacet
facet normal 0 1 0
outer loop
vertex -13 20 6
vertex -51 20 0
vertex -51 20 6
endloop
endfacet
facet normal 0 1 0
outer loop
vertex -5 20 6
vertex -5 20 0
vertex -11 20 0
endloop
endfacet
facet normal 0 1 0
outer loop
vertex -5 20 6
vertex -11 20 0
vertex -11 20 6
endloop
endfacet
facet normal 0 1 0
outer loop
vertex 3 20 6
vertex 3 20 0
vertex -3 20 0
endloop
endfacet
facet normal 0 1 0
outer loop
vertex 3 20 6
vertex -3 20 0
vertex -3 20 6
endloop
endfacet
facet normal 0 1 0
outer loop
vertex 11 20 6
vertex 11 20 0
vertex 5 20 0
endloop
endfacet
facet normal 0 1 0
outer loop
vertex 11 20 6
vertex 5 20 0
vertex 5 20 6
endloop
endfacet
facet normal 0 1 0
outer loop
vertex 51 20 6
vertex 51 20 0
vertex 13 20 0
endloop
endfacet
facet normal 0 1 0
outer loop
vertex 51 20 6
vertex 13 20 0
vertex 13 20 6
endloop
endfacet
facet normal 0 -1 0
outer loop
vertex -13 -20 0
vertex -13 -20 6
vertex -51 -20 6
endloop
endfacet
facet normal 0 -1 0
outer loop
vertex -13 -20 0
vertex -51 -20 6
vertex -51 -20 0
endloop
endfacet
facet normal 0 -1 0
outer loop
vertex -5 -20 0
vertex -5 -20 6
vertex -11 -20 6
endloop
endfacet
facet normal 0 -1 0
outer loop
vertex -5 -20 0
vertex -11 -20 6
vertex -11 -20 0
endloop
endfacet
facet normal 0 -1 0
outer loop
vertex 3 -20 0
vertex 3 -20 6
vertex -3 -20 6
endloop
endfacet
facet normal 0 -1 0
outer loop
vertex 3 -20 0
vertex -3 -20 6
vertex -3 -20 0
endloop
endfacet
facet normal 0 -1 0
outer loop
vertex 11 -20 0
vertex 11 -20 6
vertex 5 -20 6
endloop
endfacet
facet normal 0 -1 0
outer loop
vertex 11 -20 0
vertex 5 -20 6
vertex 5 -20 0
endloop
endfacet
facet normal 0 -1 0
outer loop
vertex 51 -20 0
vertex 51 -20 6
vertex 13 -20 6
endloop
endfacet
facet normal 0 -1 0
outer loop
vertex 51 -20 0
vertex 13 -20 6
vertex 13 -20 0
endloop
endfacet
facet normal 0 1 0
outer loop
vertex -15 -18 6
vertex -15 -18 0
vertex -17 -18 0
endloop
endfacet
facet normal 0 1 0
outer loop
vertex -15 -18 6
vertex -17 -18 0
vertex -17 -18 6
endloop
endfacet
facet normal 0 1 0
outer loop
vertex -7 -18 6
vertex -7 -18 0
vertex -9 -18 0
endloop
endfacet
facet normal 0 1 0
outer loop
vertex -7 -18 6
vertex -9 -18 0
vertex -9 -18 6
endloop
endfacet
facet normal 0 1 0
outer loop
vertex 1 -18 6
vertex 1 -18 0
vertex -1 -18 0
endloop
endfacet
facet normal 0 1 0
outer loop
vertex 1 -18 6
vertex -1 -18 0
vertex -1 -18 6
endloop
endfacet
facet normal 0 1 0
outer loop
vertex 9 -18 6
vertex 9 -18 0
vertex 7 -18 0
endloop
endfacet
facet normal 0 1 0
outer loop
vertex 9 -18 6
vertex 7 -18 0
vertex 7 -18 6
endloop
endfacet
facet normal 0 1 0
outer loop
vertex 17 -18 6
vertex 17 -18 0
vertex 15 -18 0
endloop
endfacet
facet normal 0 1 0
outer loop
vertex 17 -18 6
vertex 15 -18 0
vertex 15 -18 6
endloop
endfacet
facet normal -1 0 0
outer loop
vertex -15 -18 6
vertex -15 18 6
vertex -15 18 0
endloop
endfacet
facet normal -1 0 0
outer loop
vertex -15 -18 6
vertex -15 18 0
vertex -15 -18 0
endloop
endfacet
facet normal 1 0 0
outer loop
vertex -13 -8 0
vertex -13 -8 6
vertex -13 -20 6
endloop
endfacet
facet normal 1 0 0
outer loop
vertex -13 -8 0
vertex -13 -20 6
vertex -13 -20 0
endloop
endfacet
facet normal 1 0 0
outer loop
vertex -13 6 0
vertex -13 6 6
vertex -13 -6 6
endloop
endfacet
facet normal 1 0 0
outer loop
vertex -13 6 0
vertex -13 -6 6
vertex -13 -6 0
endloop
endfacet
facet normal 1 0 0
outer loop
vertex -13 20 0
vertex -13 20 6
vertex -13 8 6
endloop
endfacet
facet normal 1 0 0
outer loop
vertex -13 20 0
vertex -13 8 6
vertex -13 8 0
endloop
endfacet
facet normal -1 0 0
outer loop
vertex -11 -8 6
vertex -11 -8 0
vertex -11 -20 0
endloop
endfacet
facet normal -1 0 0
outer loop
vertex -11 -8 6
vertex -11 -20 0
vertex -11 -20 6
endloop
endfacet
facet normal -1 0 0
outer loop
vertex -11 6 6
vertex -11 6 0
vertex -11 -6 0
endloop
endfacet
facet normal -1 0 0
outer loop
vertex -11 6 6
vertex -11 -6 0
vertex -11 -6 6
endloop
endfacet
facet normal -1 0 0
outer loop
vertex -11 20 6
vertex -11 20 0
vertex -11 8 0
endloop
endfacet
facet normal -1 0 0
outer loop
vertex -11 20 6
vertex -11 8 0
vertex -11 8 6
endloop
endfacet
facet normal 1 0 0
outer loop
vertex -9 -18 0
vertex -9 18 0
vertex -9 18 6
endloop
endfacet
facet normal 1 0 0
outer loop
vertex -9 -18 0
vertex -9 18 6
vertex -9 -18 6
endloop
endfacet
facet normal -1 0 0
outer loop
vertex -7 -18 6
vertex -7 18 6
vertex -7 18 0
endloop
endfacet
facet normal -1 0 0
outer loop
vertex -7 -18 6
vertex -7 18 0
vertex -7 -18 0
endloop
endfacet
facet normal 1 0 0
outer loop
vertex -5 -8 0
vertex -5 -8 6
vertex -5 -20 6
endloop
endfacet
facet normal 1 0 0
outer loop
vertex -5 -8 0
vertex -5 -20 6
vertex -5 -20 0
endloop
endfacet
facet normal 1 0 0
outer loop
vertex -5 6 0
vertex -5 6 6
vertex -5 -6 6
endloop
endfacet
facet normal 1 0 0
outer loop
vertex -5 6 0
vertex -5 -6 6
vertex -5 -6 0
endloop
endfacet
facet normal 1 0 0
outer loop
vertex -5 20 0
vertex -5 20 6
vertex -5 8 6
endloop
endfacet
facet normal 1 0 0
outer loop
vertex -5 20 0
vertex -5 8 6
vertex -5 8 0
endloop
endfacet
facet normal -1 0 0
outer loop
vertex -3 -8 6
vertex -3 -8 0
vertex -3 -20 0
endloop
endfacet
facet normal -1 0 0
outer loop
vertex -3 -8 6
vertex -3 -20 0
vertex -3 -20 6
endloop
endfacet
facet normal -1 0 0
outer loop
vertex -3 6 6
vertex -3 6 0
vertex -3 -6 0
endloop
endfacet
facet normal -1 0 0
outer loop
vertex -3 6 6
vertex -3 -6 0
vertex -3 -6 6
endloop
endfacet
facet normal -1 0 0
outer loop
vertex -3 20 6
vertex -3 20 0
vertex -3 8 0
endloop
endfacet
facet normal -1 0 0
outer loop
vertex -3 20 6
vertex -3 8 0
vertex -3 8 6
endloop
endfacet
facet normal 1 0 0
outer loop
vertex -1 -18 0
vertex -1 18 0
vertex -1 18 6
endloop
endfacet
facet normal 1 0 0
outer loop
vertex -1 -18 0
vertex -1 18 6
vertex -1 -18 6
endloop
endfacet
facet normal -1 0 0
outer loop
vertex 1 -18 6
vertex 1 18 6
vertex 1 18 0
endloop
endfacet
facet normal -1 0 0
outer loop
vertex 1 -18 6
vertex 1 18 0
vertex 1 -18 0
endloop
endfacet
facet normal 1 0 0
outer loop
vertex 3 -8 0
vertex 3 -8 6
vertex 3 -20 6
endloop
endfacet
facet normal 1 0 0
outer loop
vertex 3 -8 0
vertex 3 -20 6
vertex 3 -20 0
endloop
endfacet
facet normal 1 0 0
outer loop
vertex 3 6 0
vertex 3 6 6
vertex 3 -6 6
endloop
endfacet
facet normal 1 0 0
outer loop
vertex 3 6 0
vertex 3 -6 6
vertex 3 -6 0
endloop
endfacet
facet normal 1 0 0
outer loop
vertex 3 20 0
vertex 3 20 6
vertex 3 8 6
endloop
endfacet
facet normal 1 0 0
outer loop
vertex 3 20 0
vertex 3 8 6
vertex 3 8 0
endloop
endfacet
facet normal -1 0 0
outer loop
vertex 5 -8 6
vertex 5 -8 0
vertex 5 -20 0
endloop
endfacet
facet normal -1 0 0
outer loop
vertex 5 -8 6
vertex 5 -20 0
vertex 5 -20 6
endloop
endfacet
facet normal -1 0 0
outer loop
vertex 5 6 6
vertex 5 6 0
vertex 5 -6 0
endloop
endfacet
facet normal -1 0 0
outer loop
vertex 5 6 6
vertex 5 -6 0
vertex 5 -6 6
endloop
endfacet
facet normal -1 0 0
outer loop
vertex 5 20 6
vertex 5 20 0
vertex 5 8 0
endloop
endfacet
facet normal -1 0 0
outer loop
vertex 5 20 6
vertex 5 8 0
vertex 5 8 6
endloop
endfacet
facet normal 1 0 0
outer loop
vertex 7 -18 0
vertex 7 18 0
vertex 7 18 6
endloop
endfacet
facet normal 1 0 0
outer loop
vertex 7 -18 0
vertex 7 18 6
vertex 7 -18 6
endloop
endfacet
facet normal -1 0 0
outer loop
vertex 9 -18 6
vertex 9 18 6
vertex 9 18 0
endloop
endfacet
facet normal -1 0 0
outer loop
vertex 9 -18 6
vertex 9 18 0
vertex 9 -18 0
endloop
endfacet
facet normal 1 0 0
outer loop
vertex 11 -8 0
vertex 11 -8 6
vertex 11 -20 6
endloop
endfacet
facet normal 1 0 0
outer loop
vertex 11 -8 0
vertex 11 -20 6
vertex 11 -20 0
endloop
endfacet
facet normal 1 0 0
outer loop
vertex 11 6 0
vertex 11 6 6
vertex 11 -6 6
endloop
endfacet
facet normal 1 0 0
outer loop
vertex 11 6 0
vertex 11 -6 6
vertex 11 -6 0
endloop
endfacet
facet normal 1 0 0
outer loop
vertex 11 20 0
vertex 11 20 6
vertex 11 8 6
endloop
endfacet
facet normal 1 0 0
outer loop
vertex 11 20 0
vertex 11 8 6
vertex 11 8 0
endloop
endfacet
facet normal -1 0 0
outer loop
vertex 13 -8 6
vertex 13 -8 0
vertex 13 -20 0
endloop
endfacet
facet normal -1 0 0
outer loop
vertex 13 -8 6
vertex 13 -20 0
vertex 13 -20 6
endloop
endfacet
facet normal -1 0 0
outer loop
vertex 13 6 6
vertex 13 6 0
vertex 13 -6 0
endloop
endfacet
facet normal -1 0 0
outer loop
vertex 13 6 6
vertex 13 -6 0
vertex 13 -6 6
endloop
endfacet
facet normal -1 0 0
outer loop
vertex 13 20 6
vertex 13 20 0
vertex 13 8 0
endloop
endfacet
facet normal -1 0 0
outer loop
vertex 13 20 6
vertex 13 8 0
vertex 13 8 6
endloop
endfacet
facet normal 1 0 0
outer loop
vertex 15 -18 0
vertex 15 18 0
vertex 15 18 6
endloop
endfacet
facet normal 1 0 0
outer loop
vertex 15 -18 0
vertex 15 18 6
vertex 15 -18 6
endloop
endfacet
facet normal -1 0 0
outer loop
vertex -51 -20 0
vertex -51 -20 6
vertex -51 20 6
endloop
endfacet
facet normal -1 0 0
outer loop
vertex -51 -20 0
vertex -51 20 6
vertex -51 20 0
endloop
endfacet
facet normal 1 0 0
outer loop
vertex 51 -20 0
vertex 51 20 0
vertex 51 20 6
endloop
endfacet
facet normal 1 0 0
outer loop
vertex 51 -20 0
vertex 51 20 6
vertex 51 -20 6
endloop
endfacet
facet normal 1 0 0
outer loop
vertex -17 18 0
vertex -17 18 6
vertex -17 -18 6
endloop
endfacet
facet normal 1 0 0
outer loop
vertex -17 18 0
vertex -17 -18 6
vertex -17 -18 0
endloop
endfacet
facet normal -1 0 0
outer loop
vertex 17 18 6
vertex 17 18 0
vertex 17 -18 0
endloop
endfacet
facet normal -1 0 0
outer loop
vertex 17 18 6
vertex 17 -18 0
vertex 17 -18 6
endloop
endfacet
endsolid csg.js
